<svg xmlns="http://www.w3.org/2000/svg"  version="1.2" baseProfile="tiny"
	 id="ws-c3750g-12s-s" x="0px" y="0px" viewBox="0 0 501.2 50.2" xml:space="preserve">

	<script type="text/javascript"><![CDATA[

document.addEventListener("DOMContentLoaded", function(event) {

	var svg = document.getElementById('ws-c3750g-12s-s');
	var tooltip = svg.getElementById('tooltip');
	var tooltipText = tooltip.getElementsByTagName('text')[0];
	var tooltipRects = tooltip.getElementsByTagName('rect');
	var triggers = svg.getElementsByClassName('tooltip-trigger');

    for (var i = 0; i < triggers.length; i++) {
		triggers[i].addEventListener('mousemove', showTooltip);
		triggers[i].addEventListener('mouseout', hideTooltip);
	}

	function showTooltip(evt) {
		var CTM = svg.getScreenCTM();
		var x = (evt.clientX - CTM.e - 150) / CTM.a;
		var y = (evt.clientY - CTM.f - 40) / CTM.d;
		tooltip.setAttributeNS(null, "transform", "translate(" + x + " " + y + ")");
		tooltip.setAttributeNS(null, "visibility", "visible");

		tooltipText.firstChild.data = evt.target.getAttributeNS(null, "data-tooltip-text");
		var length = tooltipText.getComputedTextLength();
		for (var i = 0; i < tooltipRects.length; i++) {
			tooltipRects[i].setAttributeNS(null, "width", length + 8);
		}
	}

	function hideTooltip(evt) {
		tooltip.setAttributeNS(null, "visibility", "hidden");
	}

    var getLocal = JSON.parse(localStorage.getItem('arraysInfoPort'));
    var count = 1;

	for(var i=0; i<getLocal.length; i++){
		if(getLocal[i][1] === "up"){
    		var path = document.getElementById("p" + count).style.fill = "green";
    		path = document.getElementById("p" + count).setAttribute('data-tooltip-text', getLocal[i][0] + " | status:" + getLocal[i][1]);
    	} else if(getLocal[i][1] === "down"){
        	var path = document.getElementById("p" + count).style.fill = "red";
        	path = document.getElementById("p" + count).setAttribute('data-tooltip-text', getLocal[i][0] + " | status:" + getLocal[i][1]);
    	} else if(getLocal[i][1] === "admin_down"){
    		var path = document.getElementById("p" + count).style.fill = "grey";
    		path = document.getElementById("p" + count).setAttribute('data-tooltip-text', getLocal[i][0] + " | status:" + getLocal[i][1]);
    	} else {
    		var path = document.getElementById("p" + count).style.fill = "black";
    		path = document.getElementById("p" + count).setAttribute('data-tooltip-text', getLocal[i][0] + " | status:" + getLocal[i][1]);
    	}
    	count++;
    }
});

]]></script>

	<style>

		#tooltip {
            font-size:8px;
            dominant-baseline: hanging;
            }

            .tooltip-trigger{
            fill:#333;
            }

            .tooltip-trigger:hover{
            transition: opacity 0.6s ease;
            opacity:0.6;
            }

	</style>

	<g>
	<path fill="none" d="M0,0.7v49.4h501.2V0.7H0z M500.3,49.6c0,0.1-0.1,0.2-0.2,0.2H0.5c-0.1,0-0.2-0.1-0.2-0.2V1.2   C0.3,1.1,0.4,1,0.5,1h499.6c0.1,0,0.2,0.1,0.2,0.2V49.6z"/>
	<path fill="#4A5456" d="M0.7,49.4h499.3v-48H0.7V49.4z M30.3,10.5c0-0.1,0.1-0.2,0.2-0.2h376.8l-2.2-0.1L399,9.8l-6-0.5l-5.9-0.7   l-6-0.8l-6-1L369.3,6l-5.8-1l-5.8-1.2l-325.3,0c-0.1,0-0.2-0.1-0.2-0.2s0.1-0.2,0.2-0.2h325.4l5.9,1.2l5.8,1l5.7,0.9l6,1l6,0.8   l5.9,0.7l6,0.5l6.1,0.4l6,0.3l6,0.2h77.4c0.1,0,0.2,0.1,0.2,0.2v37.2c0,0.1-0.1,0.2-0.2,0.2h-464c-0.1,0-0.2-0.1-0.2-0.2V10.5z    M2.1,4.3c0-0.1,0.1-0.1,0.1-0.1h23.1c0.1,0,0.1,0.1,0.1,0.1v43.3c0,0.1-0.1,0.1-0.1,0.1H2.3c-0.1,0-0.1-0.1-0.1-0.1V4.3z"/>
	<path d="M500.1,1H0.5C0.4,1,0.3,1.1,0.3,1.2v48.4c0,0.1,0.1,0.2,0.2,0.2h499.6c0.1,0,0.2-0.1,0.2-0.2V1.2   C500.3,1.1,500.2,1,500.1,1z M499.9,49.4H0.7v-48h499.3V49.4z"/>
	<polygon fill="#D8D8D8" points="30.7,10.7 30.7,47.5 494.4,47.5 494.4,10.7 417.2,10.7  "/>
	<path fill="#DEDFE7" d="M30.5,47.9h464c0.1,0,0.2-0.1,0.2-0.2V10.5c0,0.1-0.1,0.2-0.2,0.2h-0.2v36.8H30.7V10.7h386.5l-6-0.2   l-3.8-0.2H30.5c-0.1,0-0.2,0.1-0.2,0.2v37.2C30.3,47.8,30.4,47.9,30.5,47.9z"/>
	<rect x="2.4" y="4.5" fill="#FFFFFF" width="22.8" height="43.1"/>
	<path fill="#FFFFFF" d="M2.3,47.8h23.1c0.1,0,0.1-0.1,0.1-0.1V4.3c0-0.1-0.1-0.1-0.1-0.1H2.3c-0.1,0-0.1,0.1-0.1,0.1v43.3   C2.1,47.7,2.2,47.8,2.3,47.8z M2.4,4.5h22.8v43.1H2.4V4.5z"/>
	<path d="M417.2,10.7h77.2h0.2c0.1,0,0.2-0.1,0.2-0.2s-0.1-0.2-0.2-0.2h-77.4l-6-0.2l-6-0.3l-6.1-0.4l-6-0.5l-5.9-0.7l-6-0.8l-6-1   l-5.7-0.9l-5.8-1l-5.9-1.2H32.3c-0.1,0-0.2,0.1-0.2,0.2s0.1,0.2,0.2,0.2l325.3,0l5.8,1.2l5.8,1l5.7,0.9l6,1l6,0.8l5.9,0.7l6,0.5   l6.1,0.4l2.2,0.1l3.8,0.2L417.2,10.7z"/>
</g>
<text transform="matrix(1.0083 0 0 1 425.8857 7.9221)" fill="#FFFFFF" font-family="'MyriadPro-Regular'" font-size="6px">C</text>
<text transform="matrix(1.0083 0 0 1 429.4365 7.9221)" fill="#FFFFFF" font-family="'MyriadPro-Regular'" font-size="6px">a</text>
<text transform="matrix(1.0083 0 0 1 432.3525 7.9221)" fill="#FFFFFF" font-family="'MyriadPro-Regular'" font-size="6px">t</text>
<text transform="matrix(1.0083 0 0 1 434.3369 7.9221)" fill="#FFFFFF" font-family="'MyriadPro-Regular'" font-size="6px">a</text>
<text transform="matrix(1.0083 0 0 1 437.3076 7.9221)" fill="#FFFFFF" font-family="'MyriadPro-Regular'" font-size="6px">l</text>
<text transform="matrix(1.0083 0 0 1 438.6318 7.9221)" fill="#FFFFFF" font-family="'MyriadPro-Regular'" font-size="6px">y</text>
<text transform="matrix(1.0083 0 0 1 441.6572 7.9221)" fill="#FFFFFF" font-family="'MyriadPro-Regular'" font-size="6px">s</text>
<text transform="matrix(1.0083 0 0 1 443.998 7.9221)" fill="#FFFFFF" font-family="'MyriadPro-Regular'" font-size="6px">t</text>
<text transform="matrix(1.0083 0 0 1 445.9824 7.9221)" fill="#FFFFFF" font-family="'MyriadPro-Regular'" font-size="6px"> </text>
<text transform="matrix(1.0083 0 0 1 447.2099 7.9221)" fill="#FFFFFF" font-family="'MyriadPro-Regular'" font-size="6px">3</text>
<text transform="matrix(1.0083 0 0 1 450.3134 7.9221)" fill="#FFFFFF" font-family="'MyriadPro-Regular'" font-size="6px">7</text>
<text transform="matrix(1.0083 0 0 1 453.4716 7.9221)" fill="#FFFFFF" font-family="'MyriadPro-Regular'" font-size="6px">5</text>
<text transform="matrix(1.0083 0 0 1 456.6288 7.9221)" fill="#FFFFFF" font-family="'MyriadPro-Regular'" font-size="6px">0</text>
<text transform="matrix(1.0083 0 0 1 461.8847 8.2814)" fill="#FFFFFF" font-family="'MyriadPro-Regular'" font-size="6px">S</text>
<text transform="matrix(1.0083 0 0 1 464.7099 8.2814)" fill="#FFFFFF" font-family="'MyriadPro-Regular'" font-size="6px">E</text>
<text transform="matrix(1.0083 0 0 1 467.7646 8.2814)" fill="#FFFFFF" font-family="'MyriadPro-Regular'" font-size="6px">R</text>
<text transform="matrix(1.0083 0 0 1 471.0615 8.2814)" fill="#FFFFFF" font-family="'MyriadPro-Regular'" font-size="6px">I</text>
<text transform="matrix(1.0083 0 0 1 472.163 8.2814)" fill="#FFFFFF" font-family="'MyriadPro-Regular'" font-size="6px">E</text>
<text transform="matrix(1.0083 0 0 1 475.1572 8.2814)" fill="#FFFFFF" font-family="'MyriadPro-Regular'" font-size="6px">S</text>
<g>
	<path fill="none" d="M0,0v49.4h501.2V0H0z M20.8,6.4c0-0.1,0.1-0.2,0.1-0.2l-0.1-0.1c0,0-0.1-0.1-0.1-0.1V5.4c0,0,0,0,0-0.1   l0.1-0.3C20.9,5,21,5,21,5l0.2-0.1c0.1,0,0.1,0,0.2,0L21.6,5c0,0,0.1,0,0.1,0.1l0.2,0.4c0,0,0,0.1,0,0.1v0.2c0,0.1-0.1,0.2-0.2,0.2   l0.2,0.5c0,0,0,0,0,0.1v0.3c0,0,0,0,0,0l-0.1,0.4c0,0.1,0,0.1-0.1,0.1l-0.2,0.1c0,0-0.1,0-0.1,0h-0.2c0,0-0.1,0-0.1-0.1l-0.2-0.2   c0,0-0.1-0.1-0.1-0.1V6.4z M19.1,5c0-0.1,0.1-0.2,0.2-0.2h0.4c0.1,0,0.1,0,0.1,0.1c0,0,0.1-0.1,0.1-0.1h0.4c0.1,0,0.2,0.1,0.2,0.2   v2.2c0,0.1-0.1,0.2-0.2,0.2h-0.2c0,0-0.1,0-0.1,0c0,0-0.1,0-0.1,0h-0.2c0,0-0.1,0-0.1,0c0,0-0.1,0-0.1,0h-0.3   c-0.1,0-0.2-0.1-0.2-0.2V5z M17.9,5c0-0.1,0.1-0.2,0.2-0.2h0.6c0.1,0,0.2,0.1,0.2,0.2v0.4c0,0.1-0.1,0.2-0.2,0.2h-0.1v0.1h0.1   c0.1,0,0.2,0.1,0.2,0.2v0.4c0,0.1-0.1,0.2-0.2,0.2h-0.1v0.2h0.2c0.1,0,0.2,0.1,0.2,0.2v0.4c0,0.1-0.1,0.2-0.2,0.2H18   c-0.1,0-0.2-0.1-0.2-0.2V5z M16.5,5c0-0.1,0.1-0.2,0.2-0.2h0.8c0.1,0,0.2,0.1,0.2,0.2v0.4c0,0.1-0.1,0.2-0.2,0.2v1.6   c0,0.1-0.1,0.2-0.2,0.2h-0.4c-0.1,0-0.2-0.1-0.2-0.2V5.6c-0.1,0-0.2-0.1-0.2-0.2V5z M15.3,6.4c0-0.1,0.1-0.2,0.2-0.2h0l-0.1-0.1   c0,0-0.1-0.1-0.1-0.1V5.3c0,0,0-0.1,0-0.1L15.5,5c0,0,0-0.1,0.1-0.1l0.2-0.1c0.1,0,0.1,0,0.2,0L16.1,5c0,0,0.1,0,0.1,0.1l0.2,0.4   c0,0,0,0.1,0,0.1v0.2c0,0.1-0.1,0.2-0.2,0.2h-0.1l0.1,0.2c0,0,0,0,0,0l0.1,0.3c0,0,0,0,0,0.1v0.3c0,0,0,0.1,0,0.1l-0.2,0.4   c0,0,0,0,0,0l-0.1,0.1c0,0-0.1,0.1-0.1,0.1h-0.2c0,0-0.1,0-0.1-0.1l-0.2-0.2c0,0,0,0,0-0.1l-0.1-0.3c0,0,0,0,0-0.1V6.4z M12.7,6.2   c0-0.1,0.1-0.2,0.2-0.2h0.2l-0.3-0.4c0,0,0,0,0,0l-0.1-0.3c0,0,0,0,0-0.1V4.5c0-0.1,0-0.1,0.1-0.2l0.4-0.2c0,0,0.1,0,0.1,0h0.2   c0,0,0.1,0,0.1,0l0.3,0.2c0,0,0.1,0.1,0.1,0.1L14,4.8l0,0.1c0,0,0.1,0,0.1,0h0.4c0,0,0.1,0,0.1,0c0,0,0.1,0,0.1,0h0.4   c0.1,0,0.1,0,0.1,0.1s0,0.1,0,0.2L15,6.5l0,0.7c0,0.1-0.1,0.2-0.2,0.2h-0.4c-0.1,0-0.2-0.1-0.2-0.2V6.4L14,5.2c0,0-0.1,0.1-0.1,0.1   h-0.2l0.2,0.2c0,0,0,0,0,0l0.1,0.2L14,6c0,0,0,0,0,0.1v0.5c0,0,0,0,0,0.1l-0.2,0.6c0,0,0,0.1-0.1,0.1l-0.2,0.1c0,0-0.1,0-0.1,0   h-0.2c0,0,0,0-0.1,0l-0.3-0.1c-0.1,0-0.1-0.1-0.1-0.1l-0.1-0.3c0,0,0,0,0-0.1V6.2z M10.3,5.6C10.3,5.6,10.3,5.6,10.3,5.6l0.1-0.3   L10.5,5c0,0,0-0.1,0.1-0.1l0.2-0.1c0,0,0.1,0,0.1,0l0.3,0.1c0,0,0.1,0.1,0.1,0.1l0.1,0.2c0,0,0,0.1,0,0.1v0.5v0.7v0.5   c0,0,0,0.1,0,0.1l-0.1,0.2c0,0,0,0.1-0.1,0.1l-0.2,0.1c0,0-0.1,0-0.1,0h-0.1c0,0-0.1,0-0.1,0l-0.2-0.1c0,0-0.1,0-0.1-0.1L10.4,7   l-0.1-0.3c0,0,0,0,0-0.1V5.6z M9.1,5.3c0-0.1,0-0.1,0.1-0.1L9.3,5c0,0,0,0,0,0l0.2-0.1c0.1,0,0.1,0,0.2,0L9.9,5C9.9,5,10,5,10,5   l0.2,0.4c0,0,0,0.1,0,0.1v0.3C10.2,5.9,10.1,6,10,6H9.7c0,0,0,0,0,0v0.2c0,0,0,0,0,0H10c0.1,0,0.2,0.1,0.2,0.2v0.6   c0,0,0,0.1-0.1,0.1L9.9,7.3c0,0-0.1,0.1-0.1,0.1H9.5c0,0-0.1,0-0.1-0.1L9.1,7.1c0,0-0.1-0.1-0.1-0.1V5.3z M7.8,6.4   c0-0.1,0.1-0.2,0.1-0.2L7.9,6.2c0,0-0.1-0.1-0.1-0.1V5.3c0,0,0-0.1,0-0.1L7.9,5C8,5,8,5,8,5l0.2-0.1c0.1,0,0.1,0,0.2,0L8.6,5   c0,0,0.1,0,0.1,0.1l0.2,0.4c0,0,0,0.1,0,0.1v0.2c0,0.1-0.1,0.2-0.2,0.2H8.6l0.1,0.2c0,0,0,0,0,0l0.1,0.3c0,0,0,0,0,0.1v0.5   c0,0,0,0.1,0,0.1L8.8,7.2c0,0,0,0.1-0.1,0.1L8.5,7.4c0,0-0.1,0-0.1,0H8.3c0,0-0.1,0-0.1,0L8,7.3c0,0,0,0,0,0L7.9,7.2   c0,0-0.1-0.1-0.1-0.1V6.4z M6.9,5c0-0.1,0.1-0.2,0.2-0.2h0.4c0.1,0,0.2,0.1,0.2,0.2v2.2c0,0.1-0.1,0.2-0.2,0.2H7.1   C7,7.4,6.9,7.3,6.9,7.2V5z M5.3,4.9C5.3,4.9,5.4,4.9,5.3,4.9l0.2-0.5c0,0,0-0.1,0-0.1l0.1-0.1c0,0,0,0,0,0l0.2-0.1c0,0,0.1,0,0.1,0   h0.2c0.1,0,0.1,0,0.2,0.1l0.1,0.1l0.1,0.1c0.1,0,0.1,0.1,0.1,0.2v0.6c0,0.1-0.1,0.2-0.2,0.2H6.2c0,0-0.1,0-0.1,0v0.6   c0,0,0.1,0,0.1,0h0.3c0.1,0,0.2,0.1,0.2,0.2v0.4L6.6,7.1c0,0,0,0.1-0.1,0.1L6.3,7.3c0,0-0.1,0.1-0.1,0.1H6c0,0,0,0-0.1,0L5.7,7.3   c-0.1,0-0.1-0.1-0.1-0.1L5.5,6.8L5.4,6.5c0,0,0,0,0-0.1V4.9z M12.5,38.5L12.1,39c0,0,0,0-0.1,0l-0.7,0.2l-0.8,0L10,39.2L9.4,39   c0,0-0.1,0-0.1,0L9,38.6c0,0-0.1-0.1-0.1-0.1v-0.2c0,0,0-0.1,0-0.1L9.1,38c0,0,0,0,0,0l0.2-0.2c0,0,0,0,0.1,0l0.6-0.2l0.5-0.1   l0.4,0l0.8,0.1c0,0,0.1,0,0.1,0l0.3,0.2l0.4,0.3c0,0,0,0,0.1,0.1l0.1,0.2C12.6,38.4,12.6,38.5,12.5,38.5z M12.6,35.4l-0.1,0.2   c0,0,0,0.1-0.1,0.1l-0.7,0.5c0,0-0.1,0-0.1,0H10c0,0,0,0-0.1,0l-0.6-0.2c0,0,0,0-0.1,0l-0.2-0.2c0,0,0,0,0,0L9,35.5   c0,0,0-0.1,0-0.1v-0.1c0,0,0-0.1,0-0.1L9.1,35c0,0,0,0,0,0l0.2-0.2c0,0,0,0,0.1,0l0.6-0.2l0.5-0.1l0.4,0l0.8,0.1l0.3,0.1   c0,0,0.1,0,0.1,0l0.5,0.5C12.6,35.2,12.6,35.3,12.6,35.4z M9,32.4v-0.2c0,0,0-0.1,0-0.1L9.1,32c0,0,0.1-0.1,0.1-0.1l0.2-0.1   l0.3-0.2c0,0,0,0,0,0l0.3-0.1c0,0,0,0,0.1,0h1.2l0.4,0.1l0.3,0.1l0.2,0.1c0,0,0,0,0,0l0.2,0.2c0,0,0,0,0,0l0.1,0.2   c0,0.1,0,0.1,0,0.2l-0.1,0.2c0,0,0,0.1-0.1,0.1L12,33c0,0,0,0,0,0l-0.3,0.1l-0.8,0.1l-0.9,0c0,0,0,0-0.1,0l-0.3-0.1c0,0,0,0,0,0   l-0.3-0.2l-0.2-0.1c0,0-0.1,0-0.1-0.1L9,32.4C9,32.5,9,32.5,9,32.4z M12.6,27.1l-0.1,0.2c0,0,0,0,0,0l-0.2,0.2c0,0,0,0-0.1,0   L12,27.7l-0.3,0.1l-0.4,0.1l-1.3,0c0,0,0,0-0.1,0l-0.3-0.1c0,0,0,0,0,0l-0.3-0.2l-0.2-0.1c0,0-0.1,0-0.1-0.1L9,27.2   c0,0,0-0.1,0-0.1v-0.2c0-0.1,0-0.1,0.1-0.1l0.1-0.1c0,0,0,0,0,0l0.2-0.1l0.6-0.2l0.5-0.1l0.4,0l0.8,0.1l0.3,0.1c0,0,0,0,0.1,0   l0.5,0.4C12.6,27,12.6,27,12.6,27.1z M9,21.6v-0.2c0,0,0-0.1,0-0.1l0.1-0.2c0,0,0.1-0.1,0.1-0.1L9.4,21l0.3-0.2c0,0,0,0,0,0   l0.3-0.1c0,0,0,0,0.1,0h1.2l0.4,0.1l0.3,0.1l0.2,0.1c0,0,0,0,0,0l0.2,0.2c0,0,0,0,0,0l0.1,0.2c0,0.1,0,0.1,0,0.2l-0.1,0.2   c0,0,0,0.1-0.1,0.1L12,22.2c0,0,0,0,0,0l-0.3,0.1l-0.8,0.1l-0.9,0c0,0,0,0-0.1,0l-0.3-0.1c0,0,0,0,0,0l-0.3-0.2L9.2,22   c0,0-0.1,0-0.1-0.1L9,21.6C9,21.7,9,21.7,9,21.6z M18.8,15.6h-0.2h-0.4H18h-0.5h-0.2H17h-0.2h-0.4h-0.2h-0.4h-0.3h-0.3H15h-0.4   h-0.2H14h-0.2h-0.4h-0.3h-0.3h-0.3h-0.4H12h-0.4h-0.2H11h-0.2h-0.4h-0.2H9.8H9.6H9.3H9H8.6H8.4H8H7.8H7.4H7.3H6.9H6.6H6.3H6H5.5   c-0.1,0-0.2-0.1-0.2-0.2V8c0-0.1,0.1-0.2,0.2-0.2h16.1c0.1,0,0.2,0.1,0.2,0.2v7.5c0,0.1-0.1,0.2-0.2,0.2h-0.5H21h-0.4h-0.2H20h-0.3   h-0.3h-0.3H18.8z M24.8,44.3L24.5,45c0,0-0.1,0.1-0.1,0.1l-0.3,0.1c0,0,0,0-0.1,0h-3.8c0,0,0,0-0.1,0l-0.3-0.1c0,0-0.1,0-0.1,0   l-0.2-0.2c0,0,0,0,0-0.1l-0.2-0.5l-0.1-0.6l0-1.3l0.1-0.6l0.2-0.5l0.2-0.3c0,0,0.1-0.1,0.1-0.1l0.3-0.1c0,0,0,0,0.1,0H24   c0,0,0,0,0.1,0l0.3,0.1c0.1,0,0.1,0.1,0.1,0.1l0.1,0.3l0.2,0.5l0.1,0.6l0,1.3L24.8,44.3z M30.7,46.9c0,0.1-0.1,0.2-0.2,0.2h-5   c-0.1,0-0.2-0.1-0.2-0.2V3.3c0-0.1,0.1-0.2,0.2-0.2h5c0.1,0,0.2,0.1,0.2,0.2V46.9z"/>
	<rect x="25.8" y="3.5" fill="#325A5A" width="4.6" height="43.3"/>
	<path d="M30.5,3.1h-5c-0.1,0-0.2,0.1-0.2,0.2v43.6c0,0.1,0.1,0.2,0.2,0.2h5c0.1,0,0.2-0.1,0.2-0.2V3.3C30.7,3.2,30.6,3.1,30.5,3.1z    M30.3,46.8h-4.6V3.5h4.6V46.8z"/>
	<polygon points="7.2,5.2 7.2,7 7.3,7  "/>
	<path d="M7.1,7.4h0.4c0.1,0,0.2-0.1,0.2-0.2V5c0-0.1-0.1-0.2-0.2-0.2H7.1C7,4.8,6.9,4.9,6.9,5v2.2C6.9,7.3,7,7.4,7.1,7.4z M7.2,5.2   l0,1.8h0V5.2z"/>
	<polygon points="8.2,5.9 8.2,6 8.3,6.1  "/>
	<path d="M8,7.2C8,7.3,8,7.3,8,7.2l0.2,0.1c0,0,0.1,0,0.1,0h0.1c0,0,0.1,0,0.1,0l0.2-0.1c0,0,0.1,0,0.1-0.1L8.9,7c0,0,0-0.1,0-0.1   V6.4c0,0,0,0,0-0.1L8.8,6.1c0,0,0,0,0,0L8.6,5.9h0.1c0.1,0,0.2-0.1,0.2-0.2V5.5c0,0,0-0.1,0-0.1L8.7,5c0,0,0-0.1-0.1-0.1L8.4,4.9   c-0.1,0-0.1,0-0.2,0L8,5C8,5,8,5,7.9,5L7.8,5.2c0,0,0,0.1,0,0.1v0.8c0,0,0,0.1,0.1,0.1L8,6.3c-0.1,0-0.1,0.1-0.1,0.2V7   C7.8,7.1,7.8,7.1,8,7.2L8,7.2z M8.2,5.9l0.1,0.2L8.2,5.9L8.2,5.9z"/>
	<path d="M9.4,7.3c0,0,0.1,0.1,0.1,0.1h0.2c0,0,0.1,0,0.1-0.1l0.3-0.3c0,0,0.1-0.1,0.1-0.1V6.4c0-0.1-0.1-0.2-0.2-0.2H9.7   c0,0,0,0,0,0V6c0,0,0,0,0,0H10c0.1,0,0.2-0.1,0.2-0.2V5.5c0,0,0-0.1,0-0.1L10,5C10,5,9.9,5,9.9,5L9.7,4.9c-0.1,0-0.1,0-0.2,0L9.4,5   c0,0,0,0,0,0L9.1,5.2c0,0-0.1,0.1-0.1,0.1v1.6c0,0,0,0.1,0.1,0.1L9.4,7.3z"/>
	<path d="M14.5,5.9l0.1,0.5l0,0.6h0V6.4l0.1-0.5c0,0-0.1,0-0.1,0C14.6,6,14.5,6,14.5,5.9z"/>
	<path d="M14,5.2l0.2,1.2v0.8c0,0.1,0.1,0.2,0.2,0.2h0.4c0.1,0,0.2-0.1,0.2-0.2l0-0.7l0.3-1.4c0-0.1,0-0.1,0-0.2s-0.1-0.1-0.1-0.1   h-0.4c0,0-0.1,0-0.1,0c0,0-0.1,0-0.1,0h-0.4c0,0-0.1,0-0.1,0l0,0.2C14,5.2,14,5.2,14,5.2z M14.6,6.4V7h0L14.6,6.4l-0.1-0.5   c0,0,0.1,0,0.1,0c0,0,0.1,0,0.1,0L14.6,6.4z"/>
	<polygon points="15.7,5.9 15.7,6 15.9,6.1  "/>
	<path d="M15.8,7C15.8,7,15.8,7,15.8,7L15.8,7L15.8,7z"/>
	<path d="M15.4,7.1C15.4,7.1,15.4,7.1,15.4,7.1l0.2,0.3c0,0,0.1,0.1,0.1,0.1h0.2c0.1,0,0.1,0,0.1-0.1l0.1-0.1c0,0,0,0,0,0l0.2-0.4   c0,0,0-0.1,0-0.1V6.4c0,0,0,0,0-0.1l-0.1-0.3c0,0,0,0,0,0l-0.1-0.2h0.1c0.1,0,0.2-0.1,0.2-0.2V5.5c0,0,0-0.1,0-0.1L16.2,5   c0,0,0-0.1-0.1-0.1l-0.2-0.1c-0.1,0-0.1,0-0.2,0L15.6,5c0,0-0.1,0-0.1,0.1l-0.1,0.2c0,0,0,0.1,0,0.1v0.8c0,0,0,0.1,0.1,0.1l0.1,0.1   h0c-0.1,0-0.2,0.1-0.2,0.2v0.3c0,0,0,0,0,0.1L15.4,7.1z M15.8,7L15.8,7L15.8,7C15.8,7,15.8,7,15.8,7z M15.7,5.9l0.1,0.2L15.7,5.9   L15.7,5.9z"/>
	<path d="M13.5,6C13.5,6,13.5,6,13.5,6l0.1,0.3c0,0,0,0,0,0.1v0.2l0,0V6.1l-0.1-0.3l-0.1-0.1l-0.3-0.3c0,0,0,0,0-0.1l-0.1-0.3   c0,0,0,0,0-0.1v0.2l0.1,0.2L13.5,6z"/>
	<path d="M13.5,6.8L13.5,6.8c-0.1,0.1-0.3,0.1-0.3,0.1l-0.2-0.2v0.1L13.1,7L13.3,7h0.1l0.1,0L13.5,6.8z"/>
	<path d="M13.1,4.6L13.1,4.6L13.1,4.6C13.1,4.6,13.1,4.6,13.1,4.6z"/>
	<polygon points="13.6,4.6 13.6,4.6 13.6,4.6 13.5,4.5 13.5,4.5  "/>
	<polygon points="13.6,4.9 13.6,4.8 13.6,4.9  "/>
	<path d="M13.4,4.5L13.4,4.5l-0.1,0L13.4,4.5C13.4,4.5,13.4,4.5,13.4,4.5z"/>
	<path d="M12.8,7.2c0,0.1,0.1,0.1,0.1,0.1l0.3,0.1c0,0,0,0,0.1,0h0.2c0,0,0.1,0,0.1,0l0.2-0.1c0,0,0.1-0.1,0.1-0.1L14,6.6   c0,0,0,0,0-0.1V6.1c0,0,0,0,0-0.1l-0.1-0.3l-0.1-0.2c0,0,0,0,0,0l-0.2-0.2h0.2c0.1,0,0.1,0,0.1-0.1c0,0,0-0.1,0-0.1l0-0.2l0-0.1   l-0.1-0.4c0,0,0-0.1-0.1-0.1l-0.3-0.2c0,0-0.1,0-0.1,0h-0.2c0,0-0.1,0-0.1,0l-0.4,0.2c-0.1,0-0.1,0.1-0.1,0.2v0.8c0,0,0,0,0,0.1   l0.1,0.3c0,0,0,0,0,0L13.1,6h-0.2c-0.1,0-0.2,0.1-0.2,0.2v0.7c0,0,0,0,0,0.1L12.8,7.2z M13.6,4.9L13.6,4.9l0-0.1L13.6,4.9z    M13.6,4.6L13.6,4.6C13.6,4.6,13.6,4.6,13.6,4.6L13.6,4.6C13.5,4.5,13.5,4.5,13.6,4.6L13.6,4.6z M13.4,4.5L13.4,4.5   C13.4,4.5,13.4,4.5,13.4,4.5l-0.1,0L13.4,4.5z M13.1,4.6C13.1,4.6,13.1,4.6,13.1,4.6L13.1,4.6L13.1,4.6z M13.1,5   C13.1,5,13.1,5.1,13.1,5l0.1,0.3c0,0,0,0.1,0,0.1l0.3,0.3l0.1,0.1l0.1,0.3v0.4l0,0V6.4c0,0,0,0,0-0.1L13.5,6c0,0,0,0,0,0l-0.4-0.5   l-0.1-0.2V5z M13.3,7L13.1,7l-0.1-0.2V6.7l0.2,0.2c0.1,0.1,0.2,0.1,0.3,0l0.1-0.1L13.5,7l-0.1,0H13.3z"/>
	<path d="M17.1,5.4V7h0L17.1,5.4c0-0.1,0.1-0.2,0.2-0.2v0l-0.4,0C17,5.2,17.1,5.3,17.1,5.4z"/>
	<path d="M16.7,5.6v1.6c0,0.1,0.1,0.2,0.2,0.2h0.4c0.1,0,0.2-0.1,0.2-0.2V5.6c0.1,0,0.2-0.1,0.2-0.2V5c0-0.1-0.1-0.2-0.2-0.2h-0.8   c-0.1,0-0.2,0.1-0.2,0.2v0.4C16.5,5.5,16.6,5.6,16.7,5.6z M17.3,5.2c-0.1,0-0.2,0.1-0.2,0.2V7h0V5.4c0-0.1-0.1-0.2-0.2-0.2H17.3   L17.3,5.2z"/>
	<path d="M18.2,5.2C18.3,5.2,18.3,5.2,18.2,5.2l0.2,0L18.2,5.2L18.2,5.2z"/>
	<path d="M18.2,7L18.2,7L18.2,7C18.3,7,18.3,7,18.2,7z"/>
	<path d="M18.2,6L18.2,6C18.3,6.1,18.3,6.1,18.2,6l0.2,0L18.2,6C18.3,6.1,18.3,6.1,18.2,6z"/>
	<path d="M18,7.4h0.7c0.1,0,0.2-0.1,0.2-0.2V6.8c0-0.1-0.1-0.2-0.2-0.2h-0.2V6.4h0.1c0.1,0,0.2-0.1,0.2-0.2V5.9   c0-0.1-0.1-0.2-0.2-0.2h-0.1V5.6h0.1c0.1,0,0.2-0.1,0.2-0.2V5c0-0.1-0.1-0.2-0.2-0.2H18c-0.1,0-0.2,0.1-0.2,0.2v2.2   C17.9,7.3,17.9,7.4,18,7.4z M18.3,6.1C18.3,6.1,18.3,6.1,18.3,6.1L18.3,6.1C18.3,6.1,18.3,6.1,18.3,6.1L18.3,6.1L18.3,6.1z    M18.3,5.2C18.3,5.2,18.3,5.2,18.3,5.2L18.3,5.2L18.3,5.2L18.3,5.2z M18.2,7C18.3,7,18.3,7,18.2,7L18.2,7L18.2,7z"/>
	<path d="M19.6,5.8l-0.1-0.6h0v0.6C19.5,5.8,19.5,5.8,19.6,5.8C19.6,5.8,19.6,5.8,19.6,5.8z"/>
	<path d="M20.1,5.2l0,0.6c0,0,0,0,0.1,0L20.1,5.2z"/>
	<path d="M19.8,6.6l0-0.2c0,0,0,0,0,0c0,0,0,0,0,0L19.8,6.6z"/>
	<path d="M19.3,7.4h0.3c0,0,0.1,0,0.1,0c0,0,0.1,0,0.1,0h0.2c0,0,0.1,0,0.1,0c0,0,0.1,0,0.1,0h0.2c0.1,0,0.2-0.1,0.2-0.2V5   c0-0.1-0.1-0.2-0.2-0.2h-0.4c-0.1,0-0.1,0-0.1,0.1c0,0-0.1-0.1-0.1-0.1h-0.4c-0.1,0-0.2,0.1-0.2,0.2v2.2   C19.1,7.3,19.2,7.4,19.3,7.4z M19.5,5.2L19.5,5.2l0.1,0.6c0,0,0,0,0,0c0,0-0.1,0-0.1,0V5.2z M19.9,6.4l0,0.2L19.9,6.4   C19.8,6.4,19.8,6.4,19.9,6.4C19.9,6.4,19.9,6.4,19.9,6.4z M20.1,5.2l0,0.6c0,0,0,0-0.1,0L20.1,5.2z"/>
	<path d="M21.3,6l-0.1-0.1c0,0,0,0,0,0v0l0.2,0.2L21.3,6z"/>
	<path d="M21.3,7C21.3,7,21.3,7,21.3,7L21.3,7L21.3,7z"/>
	<path d="M21,7.3c0,0,0.1,0.1,0.1,0.1h0.2c0,0,0.1,0,0.1,0l0.2-0.1c0,0,0.1-0.1,0.1-0.1l0.1-0.4c0,0,0,0,0,0V6.4c0,0,0,0,0-0.1   l-0.2-0.5c0.1,0,0.2-0.1,0.2-0.2V5.5c0,0,0-0.1,0-0.1L21.6,5c0,0,0-0.1-0.1-0.1l-0.2-0.1c-0.1,0-0.1,0-0.2,0L21,5   c0,0-0.1,0.1-0.1,0.1l-0.1,0.3c0,0,0,0,0,0.1v0.7c0,0,0,0.1,0.1,0.1l0.1,0.1c-0.1,0-0.1,0.1-0.1,0.2V7c0,0,0,0.1,0.1,0.1L21,7.3z    M21.3,7L21.3,7L21.3,7C21.3,7,21.3,7,21.3,7z M21.2,5.9C21.2,5.9,21.2,5.9,21.2,5.9L21.3,6l0.1,0.2L21.2,5.9L21.2,5.9z"/>
	<path d="M10.4,7l0.1,0.2c0,0,0,0.1,0.1,0.1l0.2,0.1c0,0,0.1,0,0.1,0H11c0,0,0.1,0,0.1,0l0.2-0.1c0,0,0.1,0,0.1-0.1L11.4,7   c0,0,0-0.1,0-0.1V6.4c0,0.1-0.1,0.2-0.2,0.2H11c-0.1,0-0.2-0.1-0.2-0.2V5.8c0-0.1,0.1-0.2,0.2-0.2h0.3c0.1,0,0.2,0.1,0.2,0.2V5.3   c0,0,0-0.1,0-0.1L11.3,5c0,0-0.1-0.1-0.1-0.1l-0.3-0.1c0,0-0.1,0-0.1,0L10.6,5c0,0-0.1,0-0.1,0.1l-0.1,0.2l-0.1,0.3c0,0,0,0,0,0.1   v1c0,0,0,0,0,0.1L10.4,7z"/>
	<path d="M11.3,5.6H11c-0.1,0-0.2,0.1-0.2,0.2v0.7c0,0.1,0.1,0.2,0.2,0.2h0.3c0.1,0,0.2-0.1,0.2-0.2V5.8C11.4,5.7,11.4,5.6,11.3,5.6   z"/>
	<polygon points="5.7,5 5.7,5 5.7,6.4 5.7,6.4  "/>
	<path d="M6,7L6,7l0.2-0.1l0,0C6.2,6.9,6.1,6.9,6,7L6,7C6,6.9,5.9,6.9,5.9,6.9l0,0l0,0.1L6,7z"/>
	<path d="M5.5,6.8l0.1,0.4c0,0.1,0.1,0.1,0.1,0.1L6,7.4c0,0,0,0,0.1,0h0.2c0,0,0.1,0,0.1-0.1l0.2-0.2c0,0,0-0.1,0.1-0.1l0.1-0.6V6.1   c0-0.1-0.1-0.2-0.2-0.2H6.2c0,0-0.1,0-0.1,0V5.3c0,0,0.1,0,0.1,0h0.3c0.1,0,0.2-0.1,0.2-0.2V4.6c0-0.1,0-0.1-0.1-0.2L6.4,4.3   L6.4,4.2c0-0.1-0.1-0.1-0.2-0.1H6c0,0-0.1,0-0.1,0L5.7,4.2c0,0,0,0,0,0L5.6,4.3c0,0,0,0,0,0.1L5.4,4.9c0,0,0,0,0,0.1v1.5   c0,0,0,0,0,0.1L5.5,6.8z M5.7,5L5.7,5l0,1.5l0,0V5z M5.9,6.9c0,0,0.1,0.1,0.1,0.1h0.1c0,0,0.1,0,0.1,0l0,0L6.1,7H6L5.9,6.9L5.9,6.9   L5.9,6.9z"/>
	<path d="M20,14.5c0.1,0,0.2,0.1,0.2,0.2l0,0.6V15c0-0.1,0.1-0.2,0.2-0.2h0.2c0.1,0,0.2,0.1,0.2,0.2l0,0.3v-0.2   c0-0.1,0.1-0.2,0.2-0.2h0.2c0.1,0,0.2,0.1,0.2,0.2v0.2h0.1V8.2H5.7v7.1h0.1v-0.2c0-0.1,0.1-0.2,0.2-0.2h0.3c0,0,0.1,0,0.1,0v0   c0-0.1,0.1-0.2,0.2-0.2h0.3c0.1,0,0.2,0.1,0.2,0.2l0,0.4v-0.6c0-0.1,0.1-0.2,0.2-0.2h0.2c0.1,0,0.2,0.1,0.2,0.2l0,0.6v-1.1   c0-0.1,0.1-0.2,0.2-0.2H8c0.1,0,0.2,0.1,0.2,0.2l0,1.1v-1.9c0-0.1,0.1-0.2,0.2-0.2h0.2c0.1,0,0.2,0.1,0.2,0.2l0,1.9v-3.1   C8.8,12,8.9,12,9,12h0.3c0.1,0,0.2,0.1,0.2,0.2l0,3.1v-4.7c0-0.1,0.1-0.2,0.2-0.2h0.2c0.1,0,0.2,0.1,0.2,0.2l0,4.7v-3.1   c0-0.1,0.1-0.2,0.2-0.2h0.2c0.1,0,0.2,0.1,0.2,0.2l0,3.1v-1.9c0-0.1,0.1-0.2,0.2-0.2H11c0.1,0,0.2,0.1,0.2,0.2v1.9h0.1v-1.1   c0-0.1,0.1-0.2,0.2-0.2h0.2c0.1,0,0.2,0.1,0.2,0.2l0,1.1v-0.6c0-0.1,0.1-0.2,0.2-0.2h0.2c0.1,0,0.2,0.1,0.2,0.2V15   c0-0.1,0.1-0.2,0.2-0.2h0.3c0,0,0.1,0,0.1,0.1c0,0,0,0,0,0c0,0,0,0,0,0c0,0,0.1,0,0.1,0h0.3c0.1,0,0.2,0.1,0.2,0.2l0,0.2v-0.2   c0-0.1,0.1-0.2,0.2-0.2H14c0.1,0,0.2,0.1,0.2,0.2l0,0.2V15c0-0.1,0.1-0.2,0.2-0.2h0.2c0.1,0,0.2,0.1,0.2,0.2v-0.3   c0-0.1,0.1-0.2,0.2-0.2h0.3c0,0,0.1,0,0.1,0v-0.4c0-0.1,0.1-0.2,0.2-0.2h0.3c0.1,0,0.2,0.1,0.2,0.2l0,1.1v-1.9   c0-0.1,0.1-0.2,0.2-0.2h0.2c0.1,0,0.2,0.1,0.2,0.2l0,1.9v-3.1c0-0.1,0.1-0.2,0.2-0.2H17c0.1,0,0.2,0.1,0.2,0.2l0,3.1v-4.7   c0-0.1,0.1-0.2,0.2-0.2h0.2c0.1,0,0.2,0.1,0.2,0.2v4.7h0.1v-3.1c0-0.1,0.1-0.2,0.2-0.2h0.2c0.1,0,0.2,0.1,0.2,0.2l0,3.1v-1.9   c0-0.1,0.1-0.2,0.2-0.2h0.2c0.1,0,0.2,0.1,0.2,0.2l0,1.9v-1.1c0-0.1,0.1-0.2,0.2-0.2h0.3c0.1,0,0.2,0.1,0.2,0.2v0.4   c0,0,0.1,0,0.1,0H20z"/>
	<path d="M18.4,15.5v-0.2l0-3.1L18.4,15.5c0,0.1-0.1,0.2-0.2,0.2h0.4C18.5,15.6,18.4,15.6,18.4,15.5z"/>
	<path d="M19,15.5v-0.2l0-1.9L19,15.5c0,0.1-0.1,0.2-0.2,0.2h0.4C19.1,15.6,19,15.6,19,15.5z"/>
	<path d="M9.5,15.5v-0.2l0-3.1L9.5,15.5c0,0.1-0.1,0.2-0.2,0.2h0.4C9.5,15.6,9.5,15.6,9.5,15.5z"/>
	<path d="M8.8,15.5v-0.2l0-1.9L8.8,15.5c0,0.1-0.1,0.2-0.2,0.2H9C8.9,15.6,8.8,15.6,8.8,15.5z"/>
	<path d="M8.2,15.5v-0.2l0-1.1L8.2,15.5c0,0.1-0.1,0.2-0.2,0.2h0.4C8.3,15.6,8.2,15.6,8.2,15.5z"/>
	<path d="M5.8,15.5v-0.2H5.7V8.2h15.8v7.1h-0.1v0.2c0,0.1-0.1,0.2-0.2,0.2h0.5c0.1,0,0.2-0.1,0.2-0.2V8c0-0.1-0.1-0.2-0.2-0.2H5.5   C5.4,7.8,5.3,7.9,5.3,8v7.5c0,0.1,0.1,0.2,0.2,0.2H6C5.9,15.6,5.8,15.6,5.8,15.5z"/>
	<path d="M7.1,15.5v-0.2l0-0.4L7.1,15.5c0,0.1-0.1,0.2-0.2,0.2h0.4C7.1,15.6,7.1,15.6,7.1,15.5z"/>
	<path d="M6.4,15.6c0,0-0.1,0.1-0.1,0.1h0.3C6.5,15.6,6.5,15.6,6.4,15.6z"/>
	<path d="M7.6,15.5v-0.2l0-0.6L7.6,15.5c0,0.1-0.1,0.2-0.2,0.2h0.4C7.7,15.6,7.6,15.6,7.6,15.5z"/>
	<path d="M19.6,15.6c0,0-0.1,0.1-0.1,0.1h0.3C19.7,15.6,19.6,15.6,19.6,15.6z"/>
	<path d="M20.8,15.5v-0.2l0-0.3L20.8,15.5c0,0.1-0.1,0.2-0.2,0.2H21C20.9,15.6,20.8,15.6,20.8,15.5z"/>
	<path d="M20.2,15.5v-0.2l0-0.6L20.2,15.5c0,0.1-0.1,0.2-0.2,0.2h0.4C20.3,15.6,20.2,15.6,20.2,15.5z"/>
	<path d="M17.9,15.5v-0.2h-0.1v0.2c0,0.1-0.1,0.2-0.2,0.2H18C17.9,15.6,17.9,15.6,17.9,15.5z"/>
	<path d="M16,15.5v-0.2l0-1.1L16,15.5c0,0.1-0.1,0.2-0.2,0.2h0.4C16.1,15.6,16,15.6,16,15.5z"/>
	<path d="M13.6,15.5v-0.2l0-0.2L13.6,15.5c0,0.1-0.1,0.2-0.2,0.2h0.4C13.7,15.6,13.6,15.6,13.6,15.5z"/>
	<path d="M17.2,15.5v-0.2l0-3.1L17.2,15.5c0,0.1-0.1,0.2-0.2,0.2h0.4C17.3,15.6,17.2,15.6,17.2,15.5z"/>
	<path d="M14.2,15.5v-0.2l0-0.2L14.2,15.5c0,0.1-0.1,0.2-0.2,0.2h0.4C14.3,15.6,14.2,15.6,14.2,15.5z"/>
	<path d="M13,15.6c0,0-0.1,0.1-0.1,0.1h0.3C13.1,15.6,13.1,15.6,13,15.6z"/>
	<path d="M11.8,15.5v-0.2l0-1.1L11.8,15.5c0,0.1-0.1,0.2-0.2,0.2H12C11.9,15.6,11.8,15.6,11.8,15.5z"/>
	<path d="M10,15.5v-0.2l0-4.7L10,15.5c0,0.1-0.1,0.2-0.2,0.2h0.4C10.1,15.6,10,15.6,10,15.5z"/>
	<path d="M11.3,15.5v-0.2h-0.1v0.2c0,0.1-0.1,0.2-0.2,0.2h0.5C11.3,15.6,11.3,15.6,11.3,15.5z"/>
	<path d="M12.4,15.5c0,0.1-0.1,0.2-0.2,0.2h0.4C12.5,15.6,12.4,15.6,12.4,15.5z"/>
	<path d="M14.8,15.5c0,0.1-0.1,0.2-0.2,0.2H15C14.9,15.6,14.8,15.6,14.8,15.5z"/>
	<path d="M16.6,15.5v-0.2l0-1.9L16.6,15.5c0,0.1-0.1,0.2-0.2,0.2h0.4C16.7,15.6,16.6,15.6,16.6,15.5z"/>
	<path d="M15.4,15.6c0,0-0.1,0.1-0.1,0.1h0.3C15.5,15.6,15.4,15.6,15.4,15.6z"/>
	<path d="M10.6,15.5v-0.2l0-3.1L10.6,15.5c0,0.1-0.1,0.2-0.2,0.2h0.4C10.7,15.6,10.6,15.6,10.6,15.5z"/>
	<path d="M19.6,14.5L19.6,14.5c0,0,0.1,0,0.1,0C19.7,14.5,19.7,14.5,19.6,14.5z"/>
	<path d="M6.4,14.9L6.4,14.9C6.4,14.9,6.3,14.9,6.4,14.9C6.3,14.9,6.4,14.9,6.4,14.9z"/>
	<path d="M12.9,14.8c0,0,0.1,0,0.1,0.1C13,14.8,12.9,14.8,12.9,14.8z"/>
	<path d="M15.4,14.6L15.4,14.6C15.3,14.5,15.3,14.5,15.4,14.6C15.3,14.5,15.3,14.5,15.4,14.6z"/>
	<path d="M13,14.9C13,14.9,13,14.9,13,14.9c0.1,0,0.1,0,0.1,0C13.1,14.9,13.1,14.9,13,14.9C13.1,14.9,13,14.9,13,14.9z"/>
	<path fill="#FFFFFF" d="M6.4,15.6c0,0,0-0.1,0-0.1v-0.5c0,0-0.1,0-0.1,0H6c-0.1,0-0.2,0.1-0.2,0.2v0.2v0.2c0,0.1,0.1,0.2,0.2,0.2   h0.3C6.4,15.6,6.4,15.6,6.4,15.6z"/>
	<path fill="#FFFFFF" d="M7.1,15.5v-0.6c0-0.1-0.1-0.2-0.2-0.2H6.6c-0.1,0-0.2,0.1-0.2,0.2v0v0v0.5c0,0,0,0.1,0,0.1   c0,0,0.1,0.1,0.1,0.1h0.3C7,15.6,7.1,15.6,7.1,15.5z"/>
	<path fill="#FFFFFF" d="M7.6,15.5v-0.8c0-0.1-0.1-0.2-0.2-0.2H7.3c-0.1,0-0.2,0.1-0.2,0.2v0.6v0.2c0,0.1,0.1,0.2,0.2,0.2h0.2   C7.5,15.6,7.6,15.6,7.6,15.5z"/>
	<path fill="#FFFFFF" d="M8.2,15.5v-1.3c0-0.1-0.1-0.2-0.2-0.2H7.8c-0.1,0-0.2,0.1-0.2,0.2v1.1v0.2c0,0.1,0.1,0.2,0.2,0.2H8   C8.1,15.6,8.2,15.6,8.2,15.5z"/>
	<path fill="#FFFFFF" d="M8.8,15.5v-2.1c0-0.1-0.1-0.2-0.2-0.2H8.4c-0.1,0-0.2,0.1-0.2,0.2v1.9v0.2c0,0.1,0.1,0.2,0.2,0.2h0.2   C8.7,15.6,8.8,15.6,8.8,15.5z"/>
	<path fill="#FFFFFF" d="M9.4,15.5v-3.3C9.4,12,9.4,12,9.3,12H9c-0.1,0-0.2,0.1-0.2,0.2v3.1v0.2c0,0.1,0.1,0.2,0.2,0.2h0.3   C9.4,15.6,9.4,15.6,9.4,15.5z"/>
	<path fill="#FFFFFF" d="M10,15.5v-4.9c0-0.1-0.1-0.2-0.2-0.2H9.6c-0.1,0-0.2,0.1-0.2,0.2v4.7v0.2c0,0.1,0.1,0.2,0.2,0.2h0.2   C9.9,15.6,10,15.6,10,15.5z"/>
	<path fill="#FFFFFF" d="M10.6,15.5v-3.3c0-0.1-0.1-0.2-0.2-0.2h-0.2C10.1,12,10,12,10,12.1v3.1v0.2c0,0.1,0.1,0.2,0.2,0.2h0.2   C10.5,15.6,10.6,15.6,10.6,15.5z"/>
	<path fill="#FFFFFF" d="M11.2,15.5v-0.2v-1.9c0-0.1-0.1-0.2-0.2-0.2h-0.2c-0.1,0-0.2,0.1-0.2,0.2v1.9v0.2c0,0.1,0.1,0.2,0.2,0.2H11   C11.1,15.6,11.2,15.6,11.2,15.5z"/>
	<path fill="#FFFFFF" d="M11.8,15.5v-1.3c0-0.1-0.1-0.2-0.2-0.2h-0.2c-0.1,0-0.2,0.1-0.2,0.2v1.1v0.2c0,0.1,0.1,0.2,0.2,0.2h0.2   C11.7,15.6,11.8,15.6,11.8,15.5z"/>
	<path fill="#FFFFFF" d="M13,15.6c0,0,0-0.1,0-0.1v-0.4c0-0.1,0-0.1,0.1-0.1c0,0,0,0,0-0.1c0,0,0,0,0,0c0,0-0.1-0.1-0.1-0.1h-0.3   c-0.1,0-0.2,0.1-0.2,0.2v0.3v0.2c0,0.1,0.1,0.2,0.2,0.2h0.3C12.9,15.6,13,15.6,13,15.6z"/>
	<path fill="#FFFFFF" d="M13.6,15.5v-0.4c0-0.1-0.1-0.2-0.2-0.2h-0.3c0,0-0.1,0-0.1,0c0,0-0.1,0.1-0.1,0.1v0.4c0,0,0,0.1,0,0.1   c0,0,0.1,0.1,0.1,0.1h0.3C13.6,15.6,13.6,15.6,13.6,15.5z"/>
	<path fill="#FFFFFF" d="M14.2,15.5v-0.4c0-0.1-0.1-0.2-0.2-0.2h-0.2c-0.1,0-0.2,0.1-0.2,0.2v0.2v0.2c0,0.1,0.1,0.2,0.2,0.2H14   C14.1,15.6,14.2,15.6,14.2,15.5z"/>
	<path fill="#FFFFFF" d="M14.8,15.5v-0.2V15c0-0.1-0.1-0.2-0.2-0.2h-0.2c-0.1,0-0.2,0.1-0.2,0.2v0.3v0.2c0,0.1,0.1,0.2,0.2,0.2h0.2   C14.7,15.6,14.8,15.6,14.8,15.5z"/>
	<path fill="#FFFFFF" d="M15.4,15.6c0,0,0-0.1,0-0.1v-0.9c0,0-0.1,0-0.1,0H15c-0.1,0-0.2,0.1-0.2,0.2V15v0.3v0.2   c0,0.1,0.1,0.2,0.2,0.2h0.3C15.3,15.6,15.4,15.6,15.4,15.6z"/>
	<path fill="#FFFFFF" d="M16,15.5v-1.3c0-0.1-0.1-0.2-0.2-0.2h-0.3c-0.1,0-0.2,0.1-0.2,0.2v0.4v0v0.9c0,0,0,0.1,0,0.1   c0,0,0.1,0.1,0.1,0.1h0.3C15.9,15.6,16,15.6,16,15.5z"/>
	<path fill="#FFFFFF" d="M16.6,15.5v-2.1c0-0.1-0.1-0.2-0.2-0.2h-0.2c-0.1,0-0.2,0.1-0.2,0.2v1.9v0.2c0,0.1,0.1,0.2,0.2,0.2h0.2   C16.5,15.6,16.6,15.6,16.6,15.5z"/>
	<path fill="#FFFFFF" d="M17.2,15.5v-3.3c0-0.1-0.1-0.2-0.2-0.2h-0.2c-0.1,0-0.2,0.1-0.2,0.2v3.1v0.2c0,0.1,0.1,0.2,0.2,0.2H17   C17.1,15.6,17.2,15.6,17.2,15.5z"/>
	<path fill="#FFFFFF" d="M17.7,15.5v-0.2v-4.7c0-0.1-0.1-0.2-0.2-0.2h-0.2c-0.1,0-0.2,0.1-0.2,0.2v4.7v0.2c0,0.1,0.1,0.2,0.2,0.2   h0.2C17.7,15.6,17.7,15.6,17.7,15.5z"/>
	<path fill="#FFFFFF" d="M18.4,15.5v-3.3c0-0.1-0.1-0.2-0.2-0.2H18c-0.1,0-0.2,0.1-0.2,0.2v3.1v0.2c0,0.1,0.1,0.2,0.2,0.2h0.2   C18.3,15.6,18.4,15.6,18.4,15.5z"/>
	<path fill="#FFFFFF" d="M19,15.5v-2.1c0-0.1-0.1-0.2-0.2-0.2h-0.2c-0.1,0-0.2,0.1-0.2,0.2v1.9v0.2c0,0.1,0.1,0.2,0.2,0.2h0.2   C18.9,15.6,19,15.6,19,15.5z"/>
	<path fill="#FFFFFF" d="M19.6,15.6C19.6,15.5,19.6,15.5,19.6,15.6l0-0.9c0-0.1,0-0.1,0.1-0.1v0v-0.4c0-0.1-0.1-0.2-0.2-0.2h-0.3   c-0.1,0-0.2,0.1-0.2,0.2v1.1v0.2c0,0.1,0.1,0.2,0.2,0.2h0.3C19.5,15.6,19.6,15.6,19.6,15.6z"/>
	<path fill="#FFFFFF" d="M20.2,15.5v-0.8c0-0.1-0.1-0.2-0.2-0.2h-0.3c0,0-0.1,0-0.1,0c0,0-0.1,0.1-0.1,0.1v0.8c0,0,0,0.1,0,0.1   c0,0,0.1,0.1,0.1,0.1H20C20.1,15.6,20.2,15.6,20.2,15.5z"/>
	<path fill="#FFFFFF" d="M20.8,15.5V15c0-0.1-0.1-0.2-0.2-0.2h-0.2c-0.1,0-0.2,0.1-0.2,0.2v0.3v0.2c0,0.1,0.1,0.2,0.2,0.2h0.2   C20.7,15.6,20.8,15.6,20.8,15.5z"/>
	<path fill="#FFFFFF" d="M21.4,15.5v-0.2v-0.2c0-0.1-0.1-0.2-0.2-0.2H21c-0.1,0-0.2,0.1-0.2,0.2v0.2v0.2c0,0.1,0.1,0.2,0.2,0.2h0.2   C21.3,15.6,21.4,15.6,21.4,15.5z"/>
	<path fill="#FFFFFF" d="M12.4,15.5v-0.2V15v-0.3c0-0.1-0.1-0.2-0.2-0.2H12c-0.1,0-0.2,0.1-0.2,0.2v0.6v0.2c0,0.1,0.1,0.2,0.2,0.2   h0.2C12.3,15.6,12.4,15.6,12.4,15.5z"/>
	<polygon fill="#4D4D4D" points="24.4,41.9 24.2,41.3 24,41.3 20.3,41.3 20.1,41.3 19.9,41.5 19.7,42 19.6,42.5 19.6,43.7    19.7,44.3 19.9,44.7 20,44.8 20.3,44.9 24,44.9 24.2,44.8 24.3,44.7 24.4,44.2 24.5,43.7 24.5,42.5  "/>
	<path fill="#4D4D4D" d="M24.8,41.8l-0.2-0.5l-0.1-0.3c0-0.1-0.1-0.1-0.1-0.1l-0.3-0.1c0,0,0,0-0.1,0h-3.8c0,0,0,0-0.1,0L19.9,41   c0,0-0.1,0-0.1,0.1l-0.2,0.3l-0.2,0.5l-0.1,0.6l0,1.3l0.1,0.6l0.2,0.5c0,0,0,0,0,0.1l0.2,0.2c0,0,0,0,0.1,0l0.3,0.1c0,0,0,0,0.1,0   H24c0,0,0,0,0.1,0l0.3-0.1c0,0,0.1,0,0.1-0.1l0.3-0.7l0.1-0.6l0-1.3L24.8,41.8z M24.4,44.2l-0.2,0.5l-0.1,0.1L24,44.9h-3.8L20,44.8   l-0.1-0.1l-0.2-0.4l-0.1-0.5l0-1.2l0.1-0.5l0.2-0.4l0.2-0.2l0.2-0.1H24l0.2,0.1l0.3,0.6l0.1,0.5l0,1.2L24.4,44.2z"/>
	<polygon points="10.1,35.8 11.6,35.8 12.2,35.3 11.8,35 11.6,34.9 10.9,34.8 10.5,34.8 10.1,34.9 9.6,35.1 9.4,35.2 9.3,35.3    9.4,35.5 9.6,35.6  "/>
	<path d="M12.1,34.7C12,34.7,12,34.6,12.1,34.7l-0.4-0.1l-0.8-0.1l-0.4,0L10,34.5l-0.6,0.2c0,0,0,0-0.1,0L9.1,35c0,0,0,0,0,0L9,35.2   c0,0,0,0.1,0,0.1v0.1c0,0,0,0.1,0,0.1l0.1,0.2c0,0,0,0,0,0l0.2,0.2c0,0,0,0,0.1,0l0.6,0.2c0,0,0,0,0.1,0h1.6c0,0,0.1,0,0.1,0   l0.7-0.5c0,0,0,0,0.1-0.1l0.1-0.2c0-0.1,0-0.2,0-0.2L12.1,34.7z M9.3,35.3l0.1-0.1l0.1-0.1l0.5-0.2l0.4-0.1l0.4,0l0.7,0.1l0.2,0.1   l0.4,0.3l-0.6,0.4h-1.5l-0.5-0.2l-0.1-0.1L9.3,35.3z"/>
	<polygon points="9.5,32.6 9.8,32.7 10.1,32.8 10.9,32.8 11.6,32.7 11.8,32.6 12.2,32.4 12.2,32.3 12.2,32.3 12,32.1 11.8,32    11.6,31.9 11.2,31.9 10,31.9 9.8,31.9 9.6,32.1 9.4,32.2 9.3,32.3 9.3,32.4 9.4,32.5  "/>
	<path d="M9.1,32.7C9.1,32.7,9.1,32.8,9.1,32.7l0.3,0.2l0.3,0.2c0,0,0,0,0,0l0.3,0.1c0,0,0,0,0.1,0l0.9,0l0.8-0.1L12,33c0,0,0,0,0,0   l0.4-0.3c0,0,0,0,0.1-0.1l0.1-0.2c0-0.1,0-0.1,0-0.2l-0.1-0.2c0,0,0,0,0,0l-0.2-0.2c0,0,0,0,0,0L12,31.7l-0.3-0.1l-0.4-0.1H10   c0,0,0,0-0.1,0l-0.3,0.1c0,0,0,0,0,0l-0.3,0.2l-0.2,0.1c0,0-0.1,0-0.1,0.1L9,32.2c0,0,0,0.1,0,0.1v0.2c0,0,0,0.1,0,0.1L9.1,32.7z    M9.3,32.3L9.3,32.3l0.2-0.2l0.3-0.2l0.2-0.1l1.2,0l0.4,0.1l0.3,0.1l0.2,0.1l0.1,0.1l0,0.1l0,0.1l-0.3,0.2l-0.2,0.1l-0.7,0.1h-0.8   l-0.2-0.1l-0.3-0.2l-0.1-0.1L9.3,32.3L9.3,32.3z"/>
	<polygon points="10.1,38.8 10.5,38.9 11.3,38.9 11.8,38.7 12.2,38.4 12.2,38.3 11.6,37.9 10.9,37.8 10.5,37.8 10.1,37.9 9.6,38.1    9.4,38.2 9.3,38.4 9.3,38.4 9.5,38.6  "/>
	<path d="M12.5,38.1C12.5,38.1,12.4,38.1,12.5,38.1L12,37.8l-0.3-0.2c0,0-0.1,0-0.1,0l-0.8-0.1l-0.4,0L10,37.6l-0.6,0.2   c0,0-0.1,0-0.1,0L9.1,38c0,0,0,0,0,0L9,38.2c0,0,0,0.1,0,0.1v0.2c0,0.1,0,0.1,0.1,0.1l0.3,0.3c0,0,0,0,0.1,0l0.6,0.2l0.5,0.1l0.8,0   l0.7-0.2c0,0,0.1,0,0.1,0l0.5-0.5c0.1-0.1,0.1-0.1,0-0.2L12.5,38.1z M9.3,38.4l0.1-0.1l0.1-0.1l0.5-0.2l0.4-0.1l0.4,0l0.7,0.1   l0.6,0.4l0,0l-0.4,0.3l-0.6,0.2l-0.7,0l-0.5-0.1l-0.5-0.2L9.3,38.4L9.3,38.4z"/>
	<polygon points="9.8,27.4 10.1,27.5 11.3,27.5 11.9,27.3 12,27.3 12.2,27.1 12.2,27.1 11.8,26.8 11.6,26.7 10.9,26.6 10.5,26.6    10.1,26.7 9.5,26.9 9.3,27 9.3,27.1 9.4,27.2 9.5,27.2  "/>
	<path d="M12,26.5C12,26.5,12,26.5,12,26.5l-0.4-0.1l-0.8-0.1l-0.4,0L10,26.4l-0.6,0.2l-0.2,0.1c0,0,0,0,0,0L9,26.8   c0,0-0.1,0.1-0.1,0.1v0.2c0,0,0,0.1,0,0.1l0.1,0.2c0,0,0,0.1,0.1,0.1l0.2,0.1l0.3,0.2c0,0,0,0,0,0l0.3,0.1c0,0,0,0,0.1,0l1.3,0   l0.4-0.1l0.3-0.1l0.2-0.1c0,0,0,0,0.1,0l0.2-0.2c0,0,0,0,0,0l0.1-0.2c0-0.1,0-0.2,0-0.2L12,26.5z M9.3,27.1L9.3,27.1l0.2-0.2   l0.5-0.2l0.4-0.1l0.4,0l0.7,0.1l0.3,0.1l0.3,0.2h0L12,27.3l-0.1,0.1l-0.6,0.2h-1.2l-0.2-0.1l-0.3-0.2L9.3,27.1L9.3,27.1z"/>
	<polygon points="9.5,21.7 9.8,21.9 10.1,22 10.9,22 11.6,21.9 11.8,21.8 12.2,21.6 12.2,21.5 12.2,21.5 12,21.3 11.8,21.2    11.6,21.1 11.2,21.1 10,21.1 9.8,21.1 9.6,21.3 9.4,21.4 9.3,21.5 9.3,21.6 9.4,21.7  "/>
	<path d="M9.2,22l0.2,0.1l0.3,0.2c0,0,0,0,0,0l0.3,0.1c0,0,0,0,0.1,0l0.9,0l0.8-0.1l0.3-0.1c0,0,0,0,0,0l0.4-0.3c0,0,0,0,0.1-0.1   l0.1-0.2c0-0.1,0-0.1,0-0.2l-0.1-0.2c0,0,0,0,0,0L12.3,21c0,0,0,0,0,0L12,20.9l-0.3-0.1l-0.4-0.1H10c0,0,0,0-0.1,0l-0.3,0.1   c0,0,0,0,0,0L9.4,21l-0.2,0.1c0,0-0.1,0-0.1,0.1L9,21.4c0,0,0,0.1,0,0.1v0.2c0,0,0,0.1,0,0.1L9.2,22C9.1,21.9,9.1,22,9.2,22z    M9.3,21.5L9.3,21.5l0.2-0.2l0.3-0.2l0.2-0.1l1.2,0l0.4,0.1l0.3,0.1l0.2,0.1l0.1,0.1l0,0.1l0,0.1l-0.3,0.2l-0.2,0.1L10.9,22h-0.8   l-0.2-0.1l-0.3-0.2l-0.1-0.1L9.3,21.5L9.3,21.5z"/>
</g>
<text transform="matrix(1.0083 0 0 1 11.4018 43.9186)" fill="#325A6E" font-family="'MyriadPro-Regular'" font-size="3px">M</text>
<text transform="matrix(1.0083 0 0 1 13.852 43.9186)" fill="#325A6E" font-family="'MyriadPro-Regular'" font-size="3px">O</text>
<text transform="matrix(1.0083 0 0 1 15.9423 43.9186)" fill="#325A6E" font-family="'MyriadPro-Regular'" font-size="3px">D</text>
<text transform="matrix(1.0083 0 0 1 17.8295 43.9186)" fill="#325A6E" font-family="'MyriadPro-Regular'" font-size="3px">E</text>
<g>
	<path fill="none" d="M0,0v49.4h501.2V0H0z M25.6,46.8c0.1,0,0.2,0.1,0.2,0.2s-0.1,0.2-0.2,0.2H2c-0.1,0-0.2-0.1-0.2-0.2V3.3   c0-0.1,0.1-0.2,0.2-0.2h23.6c0.1,0,0.2,0.1,0.2,0.2s-0.1,0.2-0.2,0.2H2.2v43.3H25.6z M494.8,46.9c0,0.1-0.1,0.2-0.2,0.2h-464   c-0.1,0-0.2-0.1-0.2-0.2s0.1-0.2,0.2-0.2h463.9V10.2c0-0.1,0.1-0.2,0.2-0.2s0.2,0.1,0.2,0.2V46.9z"/>
	<path d="M494.4,46.9v-0.2H30.5c-0.1,0-0.2,0.1-0.2,0.2s0.1,0.2,0.2,0.2h464C494.5,47.1,494.4,47.1,494.4,46.9z"/>
	<path d="M25.6,3.5c0.1,0,0.2-0.1,0.2-0.2s-0.1-0.2-0.2-0.2H2c-0.1,0-0.2,0.1-0.2,0.2v43.6c0-0.1,0.1-0.2,0.2-0.2h0.2V3.5H25.6z"/>
	<path d="M1.8,46.9c0,0.1,0.1,0.2,0.2,0.2h23.6c0.1,0,0.2-0.1,0.2-0.2s-0.1-0.2-0.2-0.2H2.2H2C1.9,46.8,1.8,46.8,1.8,46.9z"/>
	<path d="M494.6,10.1c-0.1,0-0.2,0.1-0.2,0.2v36.5v0.2c0,0.1,0.1,0.2,0.2,0.2s0.2-0.1,0.2-0.2V10.2   C494.8,10.1,494.7,10.1,494.6,10.1z"/>
</g>
<text transform="matrix(1.0083 0 0 1 15.121 22.5583)" fill="#325A6E" font-family="'MyriadPro-Regular'" font-size="3px">S</text>
<text transform="matrix(1.0083 0 0 1 16.5033 22.5583)" fill="#325A6E" font-family="'MyriadPro-Regular'" font-size="3px">Y</text>
<text transform="matrix(1.0083 0 0 1 18.1791 22.5583)" fill="#325A6E" font-family="'MyriadPro-Regular'" font-size="3px">S</text>
<text transform="matrix(1.0083 0 0 1 19.7099 22.5583)" fill="#325A6E" font-family="'MyriadPro-Regular'" font-size="3px">T</text>
<text transform="matrix(1.0083 0 0 1 15.121 25.4391)" fill="#325A6E" font-family="'MyriadPro-Regular'" font-size="3px">R</text>
<text transform="matrix(1.0083 0 0 1 16.6215 25.4391)" fill="#325A6E" font-family="'MyriadPro-Regular'" font-size="3px">P</text>
<text transform="matrix(1.0083 0 0 1 18.2699 25.4391)" fill="#325A6E" font-family="'MyriadPro-Regular'" font-size="3px">S</text>
<text transform="matrix(1.0083 0 0 1 15.121 28.1994)" fill="#325A6E" font-family="'MyriadPro-Regular'" font-size="3px">M</text>
<text transform="matrix(1.0083 0 0 1 17.3925 28.1994)" fill="#325A6E" font-family="'MyriadPro-Regular'" font-size="3px">A</text>
<text transform="matrix(1.0083 0 0 1 19.1352 28.1994)" fill="#325A6E" font-family="'MyriadPro-Regular'" font-size="3px">S</text>
<text transform="matrix(1.0083 0 0 1 20.5175 28.1994)" fill="#325A6E" font-family="'MyriadPro-Regular'" font-size="3px">T</text>
<text transform="matrix(1.0083 0 0 1 22.078 28.1994)" fill="#325A6E" font-family="'MyriadPro-Regular'" font-size="3px">R</text>
<text transform="matrix(1.0083 0 0 1 15.121 30.9587)" fill="#325A6E" font-family="'MyriadPro-Regular'" font-size="3px">S</text>
<text transform="matrix(1.0083 0 0 1 16.5033 30.9587)" fill="#325A6E" font-family="'MyriadPro-Regular'" font-size="3px">T</text>
<text transform="matrix(1.0083 0 0 1 18.0341 30.9587)" fill="#325A6E" font-family="'MyriadPro-Regular'" font-size="3px">A</text>
<text transform="matrix(1.0083 0 0 1 19.6249 30.9587)" fill="#325A6E" font-family="'MyriadPro-Regular'" font-size="3px">T</text>
<text transform="matrix(1.0083 0 0 1 15.121 33.7184)" fill="#325A6E" font-family="'MyriadPro-Regular'" font-size="3px">D</text>
<text transform="matrix(1.0083 0 0 1 17.0087 33.7184)" fill="#325A6E" font-family="'MyriadPro-Regular'" font-size="3px">U</text>
<text transform="matrix(1.0083 0 0 1 18.9867 33.7184)" fill="#325A6E" font-family="'MyriadPro-Regular'" font-size="3px">P</text>
<text transform="matrix(1.0083 0 0 1 20.4872 33.7184)" fill="#325A6E" font-family="'MyriadPro-Regular'" font-size="3px">L</text>
<text transform="matrix(1.0083 0 0 1 21.954 33.7184)" fill="#325A6E" font-family="'MyriadPro-Regular'" font-size="3px">X</text>
<text transform="matrix(1.0083 0 0 1 15.121 36.4797)" fill="#325A6E" font-family="'MyriadPro-Regular'" font-size="3px">S</text>
<text transform="matrix(1.0083 0 0 1 16.5033 36.4797)" fill="#325A6E" font-family="'MyriadPro-Regular'" font-size="3px">P</text>
<text transform="matrix(1.0083 0 0 1 18.1518 36.4797)" fill="#325A6E" font-family="'MyriadPro-Regular'" font-size="3px">E</text>
<text transform="matrix(1.0083 0 0 1 19.6796 36.4797)" fill="#325A6E" font-family="'MyriadPro-Regular'" font-size="3px">E</text>
<text transform="matrix(1.0083 0 0 1 21.207 36.4797)" fill="#325A6E" font-family="'MyriadPro-Regular'" font-size="3px">D</text>
<text transform="matrix(1.0083 0 0 1 15.121 39.3586)" fill="#325A6E" font-family="'MyriadPro-Regular'" font-size="3px">S</text>
<text transform="matrix(1.0083 0 0 1 16.5033 39.3586)" fill="#325A6E" font-family="'MyriadPro-Regular'" font-size="3px">T</text>
<text transform="matrix(1.0083 0 0 1 18.0341 39.3586)" fill="#325A6E" font-family="'MyriadPro-Regular'" font-size="3px">A</text>
<text transform="matrix(1.0083 0 0 1 19.6249 39.3586)" fill="#325A6E" font-family="'MyriadPro-Regular'" font-size="3px">C</text>
<text transform="matrix(1.0083 0 0 1 21.4008 39.3586)" fill="#325A6E" font-family="'MyriadPro-Regular'" font-size="3px">K</text>
<g>
	<path fill="none" d="M0,0v49.4h501.2V0H0z M9,24.3C9,24.3,9,24.2,9,24.3L9.1,24c0,0,0.1-0.1,0.1-0.1l0.2-0.1l0.3-0.2c0,0,0,0,0,0   l0.3-0.1c0,0,0,0,0.1,0h1.2l0.4,0.1l0.3,0.1l0.2,0.1c0,0,0,0,0,0l0.2,0.2c0,0,0,0,0,0l0.1,0.2c0,0.1,0,0.1,0,0.2l-0.1,0.2   c0,0,0,0.1-0.1,0.1L12,25c0,0,0,0,0,0l-0.3,0.1l-0.8,0.1l-0.9,0c0,0,0,0-0.1,0l-0.3-0.1c0,0,0,0,0,0l-0.3-0.2l-0.2-0.1   c0,0-0.1,0-0.1-0.1L9,24.6c0,0,0-0.1,0-0.1V24.3z M12.5,29.9l-0.5,0.5c0,0,0,0-0.1,0l-0.7,0.2l-0.8,0L10,30.5l-0.6-0.2   c0,0-0.1,0-0.1,0L9,30C9,30,9,29.9,9,29.9v-0.2c0,0,0-0.1,0-0.1l0.1-0.2c0,0,0,0,0,0l0.2-0.2c0,0,0,0,0.1,0l0.6-0.2l0.5-0.1l0.4,0   l0.8,0.1c0,0,0.1,0,0.1,0l0.3,0.2l0.4,0.3c0,0,0,0,0.1,0.1l0.1,0.2C12.6,29.8,12.6,29.9,12.5,29.9z M281.9,17.7h-3.4v-3.4h3.4V17.7   z"/>
	<polygon points="9.5,24.6 9.8,24.8 10.1,24.9 10.9,24.9 11.6,24.8 11.8,24.7 12.2,24.4 12.2,24.4 12.2,24.3 12,24.2 11.8,24.1    11.6,24 11.2,23.9 10,23.9 9.8,24 9.6,24.2 9.4,24.2 9.3,24.3 9.3,24.4 9.4,24.5  "/>
	<path d="M9.1,24.7C9.1,24.8,9.1,24.8,9.1,24.7l0.3,0.2l0.3,0.2c0,0,0,0,0,0l0.3,0.1c0,0,0,0,0.1,0l0.9,0l0.8-0.1L12,25c0,0,0,0,0,0   l0.4-0.3c0,0,0,0,0.1-0.1l0.1-0.2c0-0.1,0-0.1,0-0.2l-0.1-0.2c0,0,0,0,0,0l-0.2-0.2c0,0,0,0,0,0L12,23.7l-0.3-0.1l-0.4-0.1H10   c0,0,0,0-0.1,0l-0.3,0.1c0,0,0,0,0,0l-0.3,0.2l-0.2,0.1c0,0-0.1,0-0.1,0.1L9,24.2c0,0,0,0.1,0,0.1v0.2c0,0,0,0.1,0,0.1L9.1,24.7z    M9.3,24.3L9.3,24.3l0.2-0.2L9.8,24l0.2-0.1l1.2,0l0.4,0.1l0.3,0.1l0.2,0.1l0.1,0.1l0,0.1l0,0.1l-0.3,0.2l-0.2,0.1l-0.7,0.1h-0.8   l-0.2-0.1l-0.3-0.2l-0.1-0.1L9.3,24.3L9.3,24.3z"/>
	<polygon points="10.1,30.2 10.5,30.3 11.3,30.3 11.8,30.1 12.2,29.7 12.2,29.7 11.6,29.3 10.9,29.2 10.5,29.2 10.1,29.3 9.6,29.5    9.4,29.6 9.3,29.7 9.3,29.8 9.5,30  "/>
	<path d="M12.5,29.5C12.5,29.5,12.4,29.5,12.5,29.5L12,29.1L11.7,29c0,0-0.1,0-0.1,0l-0.8-0.1l-0.4,0L10,28.9l-0.6,0.2   c0,0-0.1,0-0.1,0l-0.2,0.2c0,0,0,0,0,0L9,29.6c0,0,0,0.1,0,0.1v0.2C9,29.9,9,30,9,30l0.3,0.3c0,0,0,0,0.1,0l0.6,0.2l0.5,0.1l0.8,0   l0.7-0.2c0,0,0.1,0,0.1,0l0.5-0.5c0.1-0.1,0.1-0.1,0-0.2L12.5,29.5z M9.3,29.7l0.1-0.1l0.1-0.1l0.5-0.2l0.4-0.1l0.4,0l0.7,0.1   l0.6,0.4l0,0l-0.4,0.3l-0.6,0.2l-0.7,0l-0.5-0.1L9.5,30L9.3,29.7L9.3,29.7z"/>
	<rect x="278.4" y="14.3" fill="#9A9A9A" width="3.4" height="3.4"/>
</g>
<text transform="matrix(1.0083 0 0 1 279.3417 16.6765)" font-family="'MyriadPro-Regular'" font-size="3px">1</text>
<g>
	<path fill="none" d="M0,0v49.4h501.2V0H0z M295.5,17.6h-3.4v-3.4h3.4V17.6z"/>
	<rect x="292.1" y="14.2" fill="#9A9A9A" width="3.4" height="3.4"/>
</g>
<text transform="matrix(1.0083 0 0 1 293.1406 16.5554)" font-family="'MyriadPro-Regular'" font-size="3px">2</text>
<g>
	<path fill="none" d="M0,0v49.4h501.2V0H0z M305.8,14.2h3.4v3.4h-3.4V14.2z M332.3,39.4c0,0.1-0.1,0.2-0.2,0.2h-60.3   c-0.1,0-0.2-0.1-0.2-0.2v-10c0-0.1,0.1-0.2,0.2-0.2h60.3c0.1,0,0.2,0.1,0.2,0.2V39.4z M402.7,39.3c0,0.1-0.1,0.2-0.2,0.2h-60.3   c-0.1,0-0.2-0.1-0.2-0.2v-10c0-0.1,0.1-0.2,0.2-0.2h60.3c0.1,0,0.2,0.1,0.2,0.2V39.3z"/>
	<path fill="#FFFF00" d="M287.6,39.1c-0.1,0-0.2-0.1-0.2-0.2v-0.7v-8.5v0c0,0,0-0.1,0-0.1h-0.3c0,0,0,0.1,0,0.1v9.2   c0,0.1-0.1,0.2-0.2,0.2h-4.2c0,0.1-0.1,0.1-0.1,0.1h-5.4c-0.1,0-0.1,0-0.1-0.1h-4.2c-0.1,0-0.2-0.1-0.2-0.2v-0.7v-8.5v0   c0,0,0-0.1,0-0.1H272v9.6h19.9c0,0,0-0.1,0-0.1H287.6z"/>
	<path fill="#FFFF00" d="M331.4,29.7v9.2c0,0.1-0.1,0.2-0.2,0.2H327c0,0,0,0.1,0,0.1h5v-9.6L331.4,29.7   C331.4,29.6,331.4,29.6,331.4,29.7z"/>
	<path fill="#FFFF00" d="M317,39.1c-0.1,0-0.2-0.1-0.2-0.2v-0.7v-8.5v0c0,0,0-0.1,0-0.1h-0.3c0,0,0,0.1,0,0.1v9.2   c0,0.1-0.1,0.2-0.2,0.2h-4.2c0,0.1-0.1,0.1-0.1,0.1h-5.3c-0.1,0-0.1,0-0.1-0.1h-4.3c-0.1,0-0.2-0.1-0.2-0.2v-9.2c0,0,0-0.1,0-0.1   H302c0,0,0,0.1,0,0.1v9.2c0,0.1-0.1,0.2-0.2,0.2h-4.2c0,0,0,0.1,0,0.1h23.8c0,0,0-0.1,0-0.1H317z"/>
	<path fill="#FFFF00" d="M332.2,29.2h-60.3c-0.1,0-0.2,0.1-0.2,0.2v10c0,0.1,0.1,0.2,0.2,0.2h60.3c0.1,0,0.2-0.1,0.2-0.2v-10   C332.3,29.3,332.3,29.2,332.2,29.2z M332,39.2h-5c0,0.1-0.1,0.1-0.1,0.1h-5.3c-0.1,0-0.1,0-0.1-0.1h-23.8c0,0.1-0.1,0.1-0.1,0.1   h-5.3c-0.1,0-0.1,0-0.1-0.1H272v-9.6h0.6c0-0.1,0.1-0.1,0.1-0.1H287c0.1,0,0.1,0,0.1,0.1h0.3c0-0.1,0.1-0.1,0.1-0.1h14.2   c0.1,0,0.1,0,0.1,0.1h0.1c0-0.1,0.1-0.1,0.1-0.1h14.2c0.1,0,0.1,0,0.1,0.1h0.3c0-0.1,0.1-0.1,0.1-0.1h14.2c0.1,0,0.1,0,0.1,0.1h0.6   V39.2z"/>
	<path data-tooltip-text="GigabitEthernet1/0/1 | status:Active" class="tooltip-trigger" d="M282.1,37.7h3.2v-6.7h-10.8v6.7h3.2c0.1,0,0.2,0.1,0.2,0.2v0.1h3.9v-0.1C281.9,37.7,282,37.7,282.1,37.7z" id="p1"/>
	<path fill="#808080" d="M277,38.1C277,38.1,277,38.1,277,38.1l-2.7-0.1c-0.1,0-0.2-0.1-0.2-0.2v-7.1c0-0.1,0.1-0.2,0.2-0.2h11.2   c0.1,0,0.2,0.1,0.2,0.2v7.1c0,0.1-0.1,0.2-0.2,0.2h-2.7c0,0,0,0.1,0,0.1v0.6h4v-8.8H273v0V38v0.7h4V38.1z"/>
	<path d="M272.6,29.7v8.5v0.7c0,0.1,0.1,0.2,0.2,0.2h4.2c0,0,0-0.1,0-0.1v-0.3h-4V38v-8.2v0h13.8v8.8h-4V39c0,0,0,0.1,0,0.1h4.2   c0.1,0,0.2-0.1,0.2-0.2v-9.2c0,0,0-0.1,0-0.1c0-0.1-0.1-0.1-0.1-0.1h-14.2C272.7,29.5,272.7,29.5,272.6,29.7   C272.6,29.6,272.6,29.6,272.6,29.7L272.6,29.7z"/>
	<path d="M285.7,37.8v-7.1c0-0.1-0.1-0.2-0.2-0.2h-11.2c-0.1,0-0.2,0.1-0.2,0.2v7.1c0,0.1,0.1,0.2,0.2,0.2h2.7   c0-0.1,0.1-0.1,0.1-0.1h0.8v-0.1c0-0.1-0.1-0.2-0.2-0.2h-3.2v-6.7h10.8v6.7h-3.2c-0.1,0-0.2,0.1-0.2,0.2v0.1h0.8   c0.1,0,0.1,0,0.1,0.1h2.7C285.6,38,285.7,37.9,285.7,37.8z"/>
	<rect x="277.4" y="38.3" fill="#FFFFFF" width="5.1" height="0.5"/>
	<path fill="#9A9A9A" d="M282.8,38.7v-0.6c0,0,0-0.1,0-0.1c0-0.1-0.1-0.1-0.1-0.1h-0.8H278h-0.8c-0.1,0-0.1,0-0.1,0.1   c0,0,0,0.1,0,0.1v0.6V39c0,0,0,0.1,0,0.1c0,0.1,0.1,0.1,0.1,0.1h5.4c0.1,0,0.1,0,0.1-0.1c0,0,0-0.1,0-0.1V38.7z M277.4,38.3h5.1   v0.5h-5.1V38.3z"/>
	<path data-tooltip-text="GigabitEthernet1/0/2 | status:Active" class="tooltip-trigger" d="M296.9,37.7h3.2v-6.7h-10.8v6.7h3.2c0.1,0,0.2,0.1,0.2,0.2V38h3.9v-0.2C296.7,37.7,296.8,37.7,296.9,37.7z" id="p2"/>
	<path fill="#808080" d="M301.6,29.9h-13.8v0V38v0.7h4.1v-0.5c0-0.1,0.1-0.2,0.2-0.2h-3c-0.1,0-0.2-0.1-0.2-0.2v-7.1   c0-0.1,0.1-0.2,0.2-0.2h11.2c0.1,0,0.2,0.1,0.2,0.2v7.1c0,0.1-0.1,0.2-0.2,0.2h-2.9c0.1,0,0.2,0.1,0.2,0.2v0.5h4V29.9z"/>
	<path d="M287.4,29.7v8.5v0.7c0,0.1,0.1,0.2,0.2,0.2h4.3v-0.4h-4.1V38v-8.2v0h13.8v8.8h-4v0.4h4.2c0.1,0,0.2-0.1,0.2-0.2v-9.2   c0,0,0-0.1,0-0.1c0-0.1-0.1-0.1-0.1-0.1h-14.2C287.5,29.5,287.5,29.5,287.4,29.7C287.4,29.6,287.4,29.6,287.4,29.7L287.4,29.7z"/>
	<path d="M300.5,37.8v-7.1c0-0.1-0.1-0.2-0.2-0.2h-11.2c-0.1,0-0.2,0.1-0.2,0.2v7.1c0,0.1,0.1,0.2,0.2,0.2h3h0.3h0.4v-0.2   c0-0.1-0.1-0.2-0.2-0.2h-3.2v-6.7h10.8v6.7h-3.2c-0.1,0-0.2,0.1-0.2,0.2V38h0.4h0.4h2.9C300.4,38,300.5,37.9,300.5,37.8z"/>
	<rect x="292.3" y="38.4" fill="#FFFFFF" width="5" height="0.5"/>
	<path fill="#9A9A9A" d="M297.6,38.7v-0.5c0-0.1-0.1-0.2-0.2-0.2H297h-0.4h-3.9h-0.4h-0.3c-0.1,0-0.2,0.1-0.2,0.2v0.5v0.4   c0,0,0,0.1,0,0.1c0,0.1,0.1,0.1,0.1,0.1h5.3c0.1,0,0.1,0,0.1-0.1c0,0,0-0.1,0-0.1V38.7z M292.3,38.4h5v0.5h-5V38.4z"/>
	<path data-tooltip-text="GigabitEthernet1/0/3 | status:Active" class="tooltip-trigger" d="M311.5,37.7h3.2v-6.7h-10.8v6.7h3.2c0.1,0,0.2,0.1,0.2,0.2v0.1h3.9v-0.1C311.3,37.7,311.4,37.7,311.5,37.7z" id="p3"/>
	<path fill="#808080" d="M306.5,38.1C306.5,38.1,306.5,38.1,306.5,38.1l-2.8-0.1c-0.1,0-0.2-0.1-0.2-0.2v-7.1c0-0.1,0.1-0.2,0.2-0.2   h11.2c0.1,0,0.2,0.1,0.2,0.2v7.1c0,0.1-0.1,0.2-0.2,0.2h-2.7c0,0,0,0.1,0,0.1v0.6h4v-8.8h-13.8v8.8h4.1V38.1z"/>
	<path d="M302,38.9c0,0.1,0.1,0.2,0.2,0.2h4.3c0,0,0-0.1,0-0.1v-0.3h-4.1v-8.8h13.8v8.8h-4V39c0,0,0,0.1,0,0.1h4.2   c0.1,0,0.2-0.1,0.2-0.2v-9.2c0,0,0-0.1,0-0.1c0-0.1-0.1-0.1-0.1-0.1h-14.2c-0.1,0-0.1,0-0.1,0.1c0,0,0,0.1,0,0.1V38.9z"/>
	<path d="M315.1,37.8v-7.1c0-0.1-0.1-0.2-0.2-0.2h-11.2c-0.1,0-0.2,0.1-0.2,0.2v7.1c0,0.1,0.1,0.2,0.2,0.2h2.8   c0-0.1,0.1-0.1,0.1-0.1h0.7v-0.1c0-0.1-0.1-0.2-0.2-0.2h-3.2v-6.7h10.8v6.7h-3.2c-0.1,0-0.2,0.1-0.2,0.2v0.1h0.8   c0.1,0,0.1,0,0.1,0.1h2.7C315,38,315.1,37.9,315.1,37.8z"/>
	<rect x="306.9" y="38.3" fill="#FFFFFF" width="5" height="0.5"/>
	<path fill="#9A9A9A" d="M312.2,38.7v-0.6c0,0,0-0.1,0-0.1c0-0.1-0.1-0.1-0.1-0.1h-0.8h-3.9h-0.7c-0.1,0-0.1,0-0.1,0.1   c0,0,0,0.1,0,0.1v0.6V39c0,0,0,0.1,0,0.1c0,0.1,0.1,0.1,0.1,0.1h5.3c0.1,0,0.1,0,0.1-0.1c0,0,0-0.1,0-0.1V38.7z M306.9,38.3h5v0.5   h-5V38.3z"/>
	<path data-tooltip-text="GigabitEthernet1/0/4 | status:Active" class="tooltip-trigger" d="M326.2,37.7h3.2v-6.7h-10.8v6.7h3.2c0.1,0,0.2,0.1,0.2,0.2V38h3.9v-0.2C326.1,37.7,326.1,37.7,326.2,37.7z" id="p4"/>
	<path fill="#808080" d="M331,29.9h-13.8v0V38v0.7h4.1v-0.5c0-0.1,0.1-0.2,0.2-0.2h-3c-0.1,0-0.2-0.1-0.2-0.2v-7.1   c0-0.1,0.1-0.2,0.2-0.2h11.2c0.1,0,0.2,0.1,0.2,0.2v7.1c0,0.1-0.1,0.2-0.2,0.2h-2.9c0.1,0,0.2,0.1,0.2,0.2v0.5h4V29.9z"/>
	<path d="M316.8,29.7v8.5v0.7c0,0.1,0.1,0.2,0.2,0.2h4.3v-0.4h-4.1V38v-8.2v0H331v8.8h-4v0.4h4.2c0.1,0,0.2-0.1,0.2-0.2v-9.2   c0,0,0-0.1,0-0.1c0-0.1-0.1-0.1-0.1-0.1H317C316.9,29.5,316.9,29.5,316.8,29.7C316.8,29.6,316.8,29.6,316.8,29.7L316.8,29.7z"/>
	<path d="M329.9,37.8v-7.1c0-0.1-0.1-0.2-0.2-0.2h-11.2c-0.1,0-0.2,0.1-0.2,0.2v7.1c0,0.1,0.1,0.2,0.2,0.2h3h0.3h0.4v-0.2   c0-0.1-0.1-0.2-0.2-0.2h-3.2v-6.7h10.8v6.7h-3.2c-0.1,0-0.2,0.1-0.2,0.2V38h0.4h0.4h2.9C329.8,38,329.9,37.9,329.9,37.8z"/>
	<rect x="321.7" y="38.4" fill="#FFFFFF" width="5" height="0.5"/>
	<path fill="#9A9A9A" d="M327,38.7v-0.5c0-0.1-0.1-0.2-0.2-0.2h-0.4h-0.4h-3.9h-0.4h-0.3c-0.1,0-0.2,0.1-0.2,0.2v0.5v0.4   c0,0,0,0.1,0,0.1c0,0.1,0.1,0.1,0.1,0.1h5.3c0.1,0,0.1,0,0.1-0.1c0,0,0-0.1,0-0.1V38.7z M321.7,38.4h5v0.5h-5V38.4z"/>
	<path fill="#FFFF00" d="M372.3,29.5L372.3,29.5C372.2,29.5,372.2,29.6,372.3,29.5C372.2,29.6,372.3,29.5,372.3,29.5z"/>
	<path fill="#FFFF00" d="M347.4,39H343c-0.1,0-0.2-0.1-0.2-0.2v-0.7v-8.5v0c0,0,0-0.1,0-0.1h-0.5v9.6h5.2   C347.5,39.1,347.4,39,347.4,39z"/>
	<path fill="#FFFF00" d="M357.8,39c-0.1,0-0.2-0.1-0.2-0.2v-0.6c0,0,0,0,0,0v-8.5c0,0,0-0.1,0-0.1h-0.3c0,0,0,0.1,0,0.1v9.2   c0,0.1-0.1,0.2-0.2,0.2H353c0,0.1-0.1,0.1-0.2,0.1h9.3c0,0,0-0.1,0-0.1H357.8z"/>
	<path fill="#FFFF00" d="M401.7,29.6v9.2c0,0.1-0.1,0.2-0.2,0.2h-4.2c0,0,0,0.1,0,0.1h5v-9.6L401.7,29.6   C401.7,29.5,401.7,29.6,401.7,29.6z"/>
	<path fill="#FFFF00" d="M376.8,39h-4.3c-0.1,0-0.2-0.1-0.2-0.2c0,0.1-0.1,0.2-0.2,0.2h-4.2c0,0,0,0.1,0,0.1h9.1   C376.9,39.1,376.8,39,376.8,39z"/>
	<path fill="#FFFF00" d="M387.3,39c-0.1,0-0.2-0.1-0.2-0.2v-0.6c0,0,0,0,0,0v-8.5c0,0,0-0.1,0-0.1h-0.4c0,0,0,0.1,0,0.1v9.2   c0,0.1-0.1,0.2-0.2,0.2h-4.1c0,0.1-0.1,0.1-0.2,0.1h9.2c0,0,0-0.1,0-0.1H387.3z"/>
	<path fill="#FFFF00" d="M402.5,29.1h-60.3c-0.1,0-0.2,0.1-0.2,0.2v10c0,0.1,0.1,0.2,0.2,0.2h60.3c0.1,0,0.2-0.1,0.2-0.2v-10   C402.7,29.2,402.6,29.1,402.5,29.1z M402.3,39.1h-5c0,0.1-0.1,0.1-0.1,0.1h-5.4c-0.1,0-0.1,0-0.1-0.1h-9.2h-5.4h-9.1   c0,0.1-0.1,0.1-0.1,0.1h-5.3c-0.1,0-0.1,0-0.1-0.1h-9.3h-5.3h-5.2v-9.6h0.5c0-0.1,0.1-0.1,0.2-0.1h14.2c0.1,0,0.1,0,0.2,0.1h0.3   c0,0,0,0,0,0c0,0,0.1-0.1,0.1-0.1h14.2c0.1,0,0.1,0,0.2,0.1h0.1c0-0.1,0.1-0.1,0.2-0.1h14.2c0.1,0,0.1,0,0.2,0.1h0.4c0,0,0,0,0,0   c0,0,0.1-0.1,0.1-0.1h14.2c0.1,0,0.1,0,0.2,0.1h0.6V39.1z"/>
	<path data-tooltip-text="GigabitEthernet1/0/5 | status:Active" class="tooltip-trigger" d="M352.3,37.6h3.2v-6.7h-10.8v6.7h3.2c0.1,0,0.2,0.1,0.2,0.2v0.1h3.9v-0.1C352.1,37.6,352.2,37.6,352.3,37.6z" id="p5"/>
	<path fill="#808080" d="M357.1,29.8h-13.8v0v8.2v0.7h4.1V38c0,0,0-0.1,0-0.1h-2.8c-0.1,0-0.2-0.1-0.2-0.2v-7.1   c0-0.1,0.1-0.2,0.2-0.2h11.2c0.1,0,0.2,0.1,0.2,0.2v7.1c0,0.1-0.1,0.2-0.2,0.2H353c0,0,0,0.1,0,0.1v0.6h4V29.8z"/>
	<path d="M342.9,29.6v8.5v0.7c0,0.1,0.1,0.2,0.2,0.2h4.3c0,0,0-0.1,0-0.1v-0.3h-4.1v-0.7v-8.2v0h13.8v8.8h-4v0.3c0,0,0,0.1,0,0.1   h4.2c0.1,0,0.2-0.1,0.2-0.2v-9.2c0,0,0-0.1,0-0.1c0-0.1-0.1-0.1-0.2-0.1H343C343,29.4,342.9,29.4,342.9,29.6   C342.9,29.5,342.9,29.6,342.9,29.6L342.9,29.6z"/>
	<path d="M355.9,37.7v-7.1c0-0.1-0.1-0.2-0.2-0.2h-11.2c-0.1,0-0.2,0.1-0.2,0.2v7.1c0,0.1,0.1,0.2,0.2,0.2h2.8   c0-0.1,0.1-0.1,0.1-0.1h0.7v-0.1c0-0.1-0.1-0.2-0.2-0.2h-3.2v-6.7h10.8v6.7h-3.2c-0.1,0-0.2,0.1-0.2,0.2v0.1h0.8   c0.1,0,0.1,0,0.1,0.1h2.7C355.8,37.9,355.9,37.9,355.9,37.7z"/>
	<rect x="347.7" y="38.2" fill="#FFFFFF" width="5" height="0.5"/>
	<path fill="#9A9A9A" d="M353,39C353,38.9,353.1,38.9,353,39l0-0.4V38c0,0,0-0.1,0-0.1c0-0.1-0.1-0.1-0.1-0.1h-0.8h-3.9h-0.7   c-0.1,0-0.1,0-0.1,0.1c0,0,0,0.1,0,0.1v0.6v0.3c0,0,0,0.1,0,0.1c0,0.1,0.1,0.1,0.2,0.1h5.3C352.9,39.1,353,39,353,39z M347.7,38.2   h5v0.5h-5V38.2z"/>
	<path data-tooltip-text="GigabitEthernet1/0/6 | status:Active" class="tooltip-trigger" d="M367.1,37.6h3.2v-6.7h-10.8v6.7h3.2c0.1,0,0.2,0.1,0.2,0.2v0.2h3.9v-0.2C366.9,37.6,367,37.6,367.1,37.6z" id="p6"/>
	<path d="M357.6,38.1C357.6,38.1,357.7,38.1,357.6,38.1l0-8.5c0,0,0-0.1,0.1-0.1c0,0,0,0,0,0c0,0,0,0.1,0,0.1V38.1z"/>
	<path fill="#808080" d="M371.9,29.8H358v8.8h4.1v-0.5c0-0.1,0.1-0.2,0.2-0.2h0.3v0h-3.2c-0.1,0-0.2-0.1-0.2-0.2v-7.1   c0-0.1,0.1-0.2,0.2-0.2h11.2c0.1,0,0.2,0.1,0.2,0.2v7.1c0,0.1-0.1,0.2-0.2,0.2h-3.2v0h0.4c0.1,0,0.2,0.1,0.2,0.2v0.5h4V29.8z"/>
	<path d="M357.7,29.6v8.6v0.6c0,0.1,0.1,0.2,0.2,0.2h4.3v-0.4H358v-8.8h13.8v8.8h-4V39h4.2c0.1,0,0.2-0.1,0.2-0.2v-0.7v-8.5v0   c0,0,0-0.1,0-0.1c0-0.1-0.1-0.1-0.2-0.1h-14.2c-0.1,0-0.1,0-0.1,0.1C357.7,29.5,357.7,29.5,357.7,29.6z"/>
	<path d="M370.5,37.9c0.1,0,0.2-0.1,0.2-0.2v-7.1c0-0.1-0.1-0.2-0.2-0.2h-11.2c-0.1,0-0.2,0.1-0.2,0.2v7.1c0,0.1,0.1,0.2,0.2,0.2   h3.2v0h0.4v-0.2c0-0.1-0.1-0.2-0.2-0.2h-3.2v-6.7h10.8v6.7h-3.2c-0.1,0-0.2,0.1-0.2,0.2v0.2h0.4v0H370.5z"/>
	<rect x="362.5" y="38.3" fill="#FFFFFF" width="5" height="0.5"/>
	<path fill="#9A9A9A" d="M367.8,38.6v-0.5c0-0.1-0.1-0.2-0.2-0.2h-0.4h-0.4H363h-0.4h-0.3c-0.1,0-0.2,0.1-0.2,0.2v0.5V39   c0,0,0,0.1,0,0.1c0,0.1,0.1,0.1,0.1,0.1h5.3c0.1,0,0.1,0,0.1-0.1c0,0,0-0.1,0-0.1V38.6z M362.5,38.3h5v0.5h-5V38.3z"/>
	<path data-tooltip-text="GigabitEthernet1/0/7 | status:Active" class="tooltip-trigger" d="M381.7,37.6h3.2v-6.7h-10.8v6.7h3.2c0.1,0,0.2,0.1,0.2,0.2v0.1h3.9v-0.1C381.5,37.6,381.6,37.6,381.7,37.6z" id="p7"/>
	<path fill="#808080" d="M386.5,29.8h-13.8v0v8.2v0.7h4.1V38c0,0,0-0.1,0-0.1H374c-0.1,0-0.2-0.1-0.2-0.2v-7.1   c0-0.1,0.1-0.2,0.2-0.2h11.2c0.1,0,0.2,0.1,0.2,0.2v7.1c0,0.1-0.1,0.2-0.2,0.2h-2.6c0,0,0,0.1,0,0.1v0.6h3.9V29.8z"/>
	<path d="M372.2,29.6v8.5v0.7c0,0.1,0.1,0.2,0.2,0.2h4.3c0,0,0-0.1,0-0.1v-0.3h-4.1v-0.7v-8.2v0h13.8v8.8h-3.9v0.3c0,0,0,0.1,0,0.1   h4.1c0.1,0,0.2-0.1,0.2-0.2v-9.2c0,0,0-0.1,0-0.1c0-0.1-0.1-0.1-0.2-0.1h-14.2C372.4,29.4,372.3,29.4,372.2,29.6   C372.3,29.5,372.2,29.6,372.2,29.6L372.2,29.6z"/>
	<path d="M385.3,37.7v-7.1c0-0.1-0.1-0.2-0.2-0.2H374c-0.1,0-0.2,0.1-0.2,0.2v7.1c0,0.1,0.1,0.2,0.2,0.2h2.8c0-0.1,0.1-0.1,0.1-0.1   h0.7v-0.1c0-0.1-0.1-0.2-0.2-0.2h-3.2v-6.7h10.8v6.7h-3.2c-0.1,0-0.2,0.1-0.2,0.2v0.1h0.9c0.1,0,0.1,0,0.1,0.1h2.6   C385.2,37.9,385.3,37.9,385.3,37.7z"/>
	<rect x="377.1" y="38.2" fill="#FFFFFF" width="5.1" height="0.5"/>
	<path fill="#9A9A9A" d="M382.5,39C382.5,38.9,382.5,38.9,382.5,39l0-0.4V38c0,0,0-0.1,0-0.1c0-0.1-0.1-0.1-0.1-0.1h-0.9h-3.9h-0.7   c-0.1,0-0.1,0-0.1,0.1c0,0,0,0.1,0,0.1v0.6v0.3c0,0,0,0.1,0,0.1c0,0.1,0.1,0.1,0.2,0.1h5.4C382.4,39.1,382.5,39,382.5,39z    M377.1,38.2h5.1v0.5h-5.1V38.2z"/>
	<path data-tooltip-text="GigabitEthernet1/0/8 | status:Active" class="tooltip-trigger" d="M396.6,37.6h3.2v-6.7H389v6.7h3.2c0.1,0,0.2,0.1,0.2,0.2v0.2h3.9v-0.2C396.4,37.6,396.5,37.6,396.6,37.6z" id="p8"/>
	<path d="M387.1,38.1C387.1,38.1,387.1,38.1,387.1,38.1l0-8.5c0,0,0-0.1,0.1-0.1c0,0,0,0,0,0c0,0,0,0.1,0,0.1V38.1z"/>
	<path fill="#808080" d="M401.4,29.8h-13.8v8.8h4v-0.5c0-0.1,0.1-0.2,0.2-0.2h0.4v0h-3.2c-0.1,0-0.2-0.1-0.2-0.2v-7.1   c0-0.1,0.1-0.2,0.2-0.2H400c0.1,0,0.2,0.1,0.2,0.2v7.1c0,0.1-0.1,0.2-0.2,0.2h-3.2v0h0.4c0.1,0,0.2,0.1,0.2,0.2v0.5h4V29.8z"/>
	<path d="M387.1,29.6v8.6v0.6c0,0.1,0.1,0.2,0.2,0.2h4.2v-0.4h-4v-8.8h13.8v8.8h-4V39h4.2c0.1,0,0.2-0.1,0.2-0.2v-9.2   c0,0,0-0.1,0-0.1c0-0.1-0.1-0.1-0.2-0.1h-14.2c-0.1,0-0.1,0-0.1,0.1C387.2,29.5,387.1,29.5,387.1,29.6z"/>
	<path d="M400,37.9c0.1,0,0.2-0.1,0.2-0.2v-7.1c0-0.1-0.1-0.2-0.2-0.2h-11.2c-0.1,0-0.2,0.1-0.2,0.2v7.1c0,0.1,0.1,0.2,0.2,0.2h3.2   v0h0.4v-0.2c0-0.1-0.1-0.2-0.2-0.2H389v-6.7h10.8v6.7h-3.2c-0.1,0-0.2,0.1-0.2,0.2v0.2h0.4v0H400z"/>
	<rect x="391.9" y="38.3" fill="#FFFFFF" width="5.1" height="0.5"/>
	<path fill="#9A9A9A" d="M397.3,38.6v-0.5c0-0.1-0.1-0.2-0.2-0.2h-0.4h-0.4h-3.9h-0.4h-0.4c-0.1,0-0.2,0.1-0.2,0.2v0.5V39   c0,0,0,0.1,0,0.1c0,0.1,0.1,0.1,0.1,0.1h5.4c0.1,0,0.1,0,0.1-0.1c0,0,0-0.1,0-0.1V38.6z M391.9,38.3h5.1v0.5h-5.1V38.3z"/>
	<rect x="305.8" y="14.2" fill="#9A9A9A" width="3.4" height="3.4"/>
</g>
<text transform="matrix(1.0083 0 0 1 306.8193 16.5554)" font-family="'MyriadPro-Regular'" font-size="3px">3</text>
<g>
	<path fill="none" d="M0,0v49.4h501.2V0H0z M324.1,17.6h-3.4v-3.4h3.4V17.6z"/>
	<rect x="320.6" y="14.2" fill="#9A9A9A" width="3.4" height="3.4"/>
</g>
<text transform="matrix(1.0083 0 0 1 321.5781 16.5554)" font-family="'MyriadPro-Regular'" font-size="3px">4</text>
<g>
	<path fill="none" d="M0,0v49.4h501.2V0H0z M351.2,17.6h-3.4v-3.4h3.4V17.6z"/>
	<rect x="347.8" y="14.2" fill="#9A9A9A" width="3.4" height="3.4"/>
</g>
<text transform="matrix(1.0083 0 0 1 348.6982 16.5554)" font-family="'MyriadPro-Regular'" font-size="3px">5</text>
<g>
	<path fill="none" d="M0,0v49.4h501.2V0H0z M365.3,17.6h-3.4v-3.4h3.4V17.6z"/>
	<rect x="361.8" y="14.2" fill="#9A9A9A" width="3.4" height="3.4"/>
</g>
<text transform="matrix(1.0083 0 0 1 362.7372 16.5554)" font-family="'MyriadPro-Regular'" font-size="3px">6</text>
<g>
	<path fill="none" d="M0,0v49.4h501.2V0H0z M378.9,17.6h-3.4v-3.4h3.4V17.6z"/>
	<rect x="375.5" y="14.2" fill="#9A9A9A" width="3.4" height="3.4"/>
</g>
<text transform="matrix(1.0083 0 0 1 376.2958 16.5554)" font-family="'MyriadPro-Regular'" font-size="3px">7</text>
<g>
	<path fill="none" d="M0,0v49.4h501.2V0H0z M393.6,17.6h-3.4v-3.4h3.4V17.6z"/>
	<rect x="390.2" y="14.2" fill="#9A9A9A" width="3.4" height="3.4"/>
</g>
<text transform="matrix(1.0083 0 0 1 391.0556 16.5554)" font-family="'MyriadPro-Regular'" font-size="3px">8</text>
<g>
	<path fill="none" d="M0,0v49.4h501.2V0H0z M419.9,14.2h3.4v3.4h-3.4V14.2z M474.7,39.3c0,0.1-0.1,0.2-0.2,0.2h-60.3   c-0.1,0-0.2-0.1-0.2-0.2v-10c0-0.1,0.1-0.2,0.2-0.2h60.3c0.1,0,0.2,0.1,0.2,0.2V39.3z"/>
	<path fill="#FFFF00" d="M459.4,39c-0.1,0-0.2-0.1-0.2-0.2v-0.6c0,0,0,0,0,0v-8.5c0,0,0-0.1,0-0.1h-0.3c0,0,0,0.1,0,0.1v9.2   c0,0.1-0.1,0.2-0.2,0.2h-4.2c0,0.1-0.1,0.1-0.2,0.1h9.2c0,0,0-0.1,0-0.1H459.4z"/>
	<path fill="#FFFF00" d="M419.4,39h-4.3c-0.1,0-0.2-0.1-0.2-0.2v-0.7v-8.5v0c0,0,0-0.1,0-0.1h-0.5v9.6h5.2   C419.5,39.1,419.5,39,419.4,39z"/>
	<path fill="#FFFF00" d="M448.8,39h-4.2c-0.1,0-0.2-0.1-0.2-0.2v-0.6c0,0,0,0,0,0v-8.5c0,0,0-0.1,0-0.1h-0.2c0,0,0,0.1,0,0.1v9.2   c0,0.1-0.1,0.2-0.2,0.2h-4.2c0,0,0,0.1,0,0.1h9.1C448.9,39.1,448.8,39,448.8,39z"/>
	<path fill="#FFFF00" d="M429.9,39c-0.1,0-0.2-0.1-0.2-0.2v-0.7v-8.5v0c0,0,0-0.1,0-0.1h-0.3c0,0,0,0.1,0,0.1v9.2   c0,0.1-0.1,0.2-0.2,0.2h-4.2c0,0.1-0.1,0.1-0.2,0.1h9.3c0,0,0-0.1,0-0.1H429.9z"/>
	<path fill="#FFFF00" d="M473.8,29.6v9.2c0,0.1-0.1,0.2-0.2,0.2h-4.2c0,0,0,0.1,0,0.1h5v-9.6L473.8,29.6   C473.8,29.5,473.8,29.6,473.8,29.6z"/>
	<path fill="#FFFF00" d="M474.5,29.1h-60.3c-0.1,0-0.2,0.1-0.2,0.2v10c0,0.1,0.1,0.2,0.2,0.2h60.3c0.1,0,0.2-0.1,0.2-0.2v-10   C474.7,29.2,474.6,29.1,474.5,29.1z M474.3,39.1h-5c0,0.1-0.1,0.1-0.1,0.1h-5.4c-0.1,0-0.1,0-0.1-0.1h-9.2H449h-9.1   c0,0.1-0.1,0.1-0.1,0.1h-5.3c-0.1,0-0.1,0-0.1-0.1h-9.3h-5.3h-5.2v-9.6h0.5c0-0.1,0.1-0.1,0.2-0.1h14.2c0.1,0,0.1,0,0.2,0.1h0.3   c0-0.1,0.1-0.1,0.2-0.1h14.2c0.1,0,0.1,0,0.2,0.1h0.2c0,0,0,0,0,0c0,0,0.1-0.1,0.1-0.1h14.2c0.1,0,0.1,0,0.2,0.1h0.3c0,0,0,0,0,0   c0,0,0.1-0.1,0.1-0.1h14.2c0.1,0,0.1,0,0.2,0.1h0.6V39.1z"/>
	<path data-tooltip-text="GigabitEthernet1/0/9 | status:Active" class="tooltip-trigger" d="M424.3,37.6h3.2v-6.7h-10.8v6.7h3.2c0.1,0,0.2,0.1,0.2,0.2v0.1h3.9v-0.1C424.2,37.6,424.2,37.6,424.3,37.6z" id="p9"/>
	<path fill="#808080" d="M429.1,29.8h-13.8v0v8.2v0.7h4.1V38c0,0,0-0.1,0-0.1h-2.8c-0.1,0-0.2-0.1-0.2-0.2v-7.1   c0-0.1,0.1-0.2,0.2-0.2h11.2c0.1,0,0.2,0.1,0.2,0.2v7.1c0,0.1-0.1,0.2-0.2,0.2h-2.7c0,0,0,0.1,0,0.1v0.6h4V29.8z"/>
	<path d="M414.9,29.6v8.5v0.7c0,0.1,0.1,0.2,0.2,0.2h4.3c0,0,0-0.1,0-0.1v-0.3h-4.1v-0.7v-8.2v0h13.8v8.8h-4v0.3c0,0,0,0.1,0,0.1   h4.2c0.1,0,0.2-0.1,0.2-0.2v-9.2c0,0,0-0.1,0-0.1c0-0.1-0.1-0.1-0.2-0.1h-14.2C415,29.4,415,29.4,414.9,29.6   C414.9,29.5,414.9,29.6,414.9,29.6L414.9,29.6z"/>
	<path d="M428,37.7v-7.1c0-0.1-0.1-0.2-0.2-0.2h-11.2c-0.1,0-0.2,0.1-0.2,0.2v7.1c0,0.1,0.1,0.2,0.2,0.2h2.8c0-0.1,0.1-0.1,0.1-0.1   h0.7v-0.1c0-0.1-0.1-0.2-0.2-0.2h-3.2v-6.7h10.8v6.7h-3.2c-0.1,0-0.2,0.1-0.2,0.2v0.1h0.8c0.1,0,0.1,0,0.1,0.1h2.7   C427.9,37.9,428,37.9,428,37.7z"/>
	<rect x="419.8" y="38.2" fill="#FFFFFF" width="5" height="0.5"/>
	<path fill="#9A9A9A" d="M425.1,39C425.1,38.9,425.1,38.9,425.1,39l0-0.4V38c0,0,0-0.1,0-0.1c0-0.1-0.1-0.1-0.1-0.1h-0.8h-3.9h-0.7   c-0.1,0-0.1,0-0.1,0.1c0,0,0,0.1,0,0.1v0.6v0.3c0,0,0,0.1,0,0.1c0,0.1,0.1,0.1,0.2,0.1h5.3C425,39.1,425,39,425.1,39z M419.8,38.2   h5v0.5h-5V38.2z"/>
	<path data-tooltip-text="GigabitEthernet1/0/10 | status:Active" class="tooltip-trigger" d="M439.1,37.6h3.2v-6.7h-10.8v6.7h3.2c0.1,0,0.2,0.1,0.2,0.2v0.2h3.9v-0.2C438.9,37.6,439,37.6,439.1,37.6z" id="p10"/>
	<path fill="#808080" d="M443.9,29.8h-13.8v0v8.2v0.7h4.1v-0.5c0-0.1,0.1-0.2,0.2-0.2h0.3v0h-3.2c-0.1,0-0.2-0.1-0.2-0.2v-7.1   c0-0.1,0.1-0.2,0.2-0.2h11.2c0.1,0,0.2,0.1,0.2,0.2v7.1c0,0.1-0.1,0.2-0.2,0.2h-3.2v0h0.4c0.1,0,0.2,0.1,0.2,0.2v0.5h4V29.8z"/>
	<path d="M429.7,29.6v8.5v0.7c0,0.1,0.1,0.2,0.2,0.2h4.3v-0.4h-4.1v-0.7v-8.2v0h13.8v8.8h-4V39h4.2c0.1,0,0.2-0.1,0.2-0.2v-9.2   c0,0,0-0.1,0-0.1c0-0.1-0.1-0.1-0.2-0.1h-14.2C429.8,29.4,429.8,29.4,429.7,29.6C429.7,29.5,429.7,29.6,429.7,29.6L429.7,29.6z"/>
	<path d="M442.6,37.9c0.1,0,0.2-0.1,0.2-0.2v-7.1c0-0.1-0.1-0.2-0.2-0.2h-11.2c-0.1,0-0.2,0.1-0.2,0.2v7.1c0,0.1,0.1,0.2,0.2,0.2   h3.2v0h0.4v-0.2c0-0.1-0.1-0.2-0.2-0.2h-3.2v-6.7h10.8v6.7h-3.2c-0.1,0-0.2,0.1-0.2,0.2v0.2h0.4v0H442.6z"/>
	<rect x="434.5" y="38.3" fill="#FFFFFF" width="5" height="0.5"/>
	<path fill="#9A9A9A" d="M439.9,38.6v-0.5c0-0.1-0.1-0.2-0.2-0.2h-0.4h-0.4H435h-0.4h-0.3c-0.1,0-0.2,0.1-0.2,0.2v0.5V39   c0,0,0,0.1,0,0.1c0,0.1,0.1,0.1,0.1,0.1h5.3c0.1,0,0.1,0,0.1-0.1c0,0,0-0.1,0-0.1V38.6z M434.5,38.3h5v0.5h-5V38.3z"/>
	<path data-tooltip-text="GigabitEthernet1/0/11 | status:Active" class="tooltip-trigger" d="M453.8,37.6h3.2v-6.7h-10.8v6.7h3.2c0.1,0,0.2,0.1,0.2,0.2v0.1h3.9v-0.1C453.6,37.6,453.7,37.6,453.8,37.6z" id="p11"/>
	<path d="M444.4,38.1C444.4,38.1,444.4,38.1,444.4,38.1l0-8.5c0,0,0-0.1,0.1-0.1c0,0,0,0,0,0c0,0,0,0.1,0,0.1V38.1z"/>
	<path fill="#808080" d="M458.6,29.8h-13.8v8.8h4V38c0,0,0-0.1,0-0.1h-2.7c-0.1,0-0.2-0.1-0.2-0.2v-7.1c0-0.1,0.1-0.2,0.2-0.2h11.2   c0.1,0,0.2,0.1,0.2,0.2v7.1c0,0.1-0.1,0.2-0.2,0.2h-2.7c0,0,0,0.1,0,0.1v0.6h4V29.8z"/>
	<path d="M444.4,29.6v8.6v0.6c0,0.1,0.1,0.2,0.2,0.2h4.2c0,0,0-0.1,0-0.1v-0.3h-4v-8.8h13.8v8.8h-4v0.3c0,0,0,0.1,0,0.1h4.2   c0.1,0,0.2-0.1,0.2-0.2v-9.2c0,0,0-0.1,0-0.1c0-0.1-0.1-0.1-0.2-0.1h-14.2c-0.1,0-0.1,0-0.1,0.1C444.4,29.5,444.4,29.5,444.4,29.6z   "/>
	<path d="M457.5,37.7v-7.1c0-0.1-0.1-0.2-0.2-0.2h-11.2c-0.1,0-0.2,0.1-0.2,0.2v7.1c0,0.1,0.1,0.2,0.2,0.2h2.7   c0-0.1,0.1-0.1,0.1-0.1h0.8v-0.1c0-0.1-0.1-0.2-0.2-0.2h-3.2v-6.7h10.8v6.7h-3.2c-0.1,0-0.2,0.1-0.2,0.2v0.1h0.8   c0.1,0,0.1,0,0.1,0.1h2.7C457.4,37.9,457.5,37.9,457.5,37.7z"/>
	<rect x="449.1" y="38.2" fill="#FFFFFF" width="5.1" height="0.5"/>
	<path fill="#9A9A9A" d="M454.6,39C454.6,38.9,454.6,38.9,454.6,39l0-0.4V38c0,0,0-0.1,0-0.1c0-0.1-0.1-0.1-0.1-0.1h-0.8h-3.9H449   c-0.1,0-0.1,0-0.1,0.1c0,0,0,0.1,0,0.1v0.6v0.3c0,0,0,0.1,0,0.1c0,0.1,0.1,0.1,0.2,0.1h5.4C454.5,39.1,454.5,39,454.6,39z    M449.1,38.2h5.1v0.5h-5.1V38.2z"/>
	<path data-tooltip-text="GigabitEthernet1/0/12 | status:Active" class="tooltip-trigger" d="M468.6,37.6h3.2v-6.7h-10.8v6.7h3.2c0.1,0,0.2,0.1,0.2,0.2v0.2h3.9v-0.2C468.4,37.6,468.5,37.6,468.6,37.6z" id="p12"/>
	<path d="M459.2,38.1C459.2,38.1,459.2,38.1,459.2,38.1l0-8.5c0,0,0-0.1,0.1-0.1c0,0,0,0,0,0c0,0,0,0.1,0,0.1V38.1z"/>
	<path fill="#808080" d="M473.4,29.8h-13.8v8.8h4v-0.5c0-0.1,0.1-0.2,0.2-0.2h0.4v0h-3.2c-0.1,0-0.2-0.1-0.2-0.2v-7.1   c0-0.1,0.1-0.2,0.2-0.2h11.2c0.1,0,0.2,0.1,0.2,0.2v7.1c0,0.1-0.1,0.2-0.2,0.2h-3.2v0h0.4c0.1,0,0.2,0.1,0.2,0.2v0.5h4V29.8z"/>
	<path d="M459.2,29.6v8.6v0.6c0,0.1,0.1,0.2,0.2,0.2h4.2v-0.4h-4v-8.8h13.8v8.8h-4V39h4.2c0.1,0,0.2-0.1,0.2-0.2v-9.2   c0,0,0-0.1,0-0.1c0-0.1-0.1-0.1-0.2-0.1h-14.2c-0.1,0-0.1,0-0.1,0.1C459.2,29.5,459.2,29.5,459.2,29.6z"/>
	<path d="M472.1,37.9c0.1,0,0.2-0.1,0.2-0.2v-7.1c0-0.1-0.1-0.2-0.2-0.2h-11.2c-0.1,0-0.2,0.1-0.2,0.2v7.1c0,0.1,0.1,0.2,0.2,0.2   h3.2v0h0.4v-0.2c0-0.1-0.1-0.2-0.2-0.2h-3.2v-6.7h10.8v6.7h-3.2c-0.1,0-0.2,0.1-0.2,0.2v0.2h0.4v0H472.1z"/>
	<rect x="463.9" y="38.3" fill="#FFFFFF" width="5.1" height="0.5"/>
	<path fill="#9A9A9A" d="M469.4,38.6v-0.5c0-0.1-0.1-0.2-0.2-0.2h-0.4h-0.4h-3.9h-0.4h-0.4c-0.1,0-0.2,0.1-0.2,0.2v0.5V39   c0,0,0,0.1,0,0.1c0,0.1,0.1,0.1,0.1,0.1h5.4c0.1,0,0.1,0,0.1-0.1c0,0,0-0.1,0-0.1V38.6z M463.9,38.3h5.1v0.5h-5.1V38.3z"/>
	<rect x="419.9" y="14.2" fill="#9A9A9A" width="3.4" height="3.4"/>
</g>
<text transform="matrix(1.0083 0 0 1 420.9335 16.5554)" font-family="'MyriadPro-Regular'" font-size="3px">9</text>
<g>
	<path fill="none" d="M0,0v49.4h501.2V0H0z M437.1,17.6h-3.4v-3.4h3.4V17.6z"/>
	<rect x="433.7" y="14.2" fill="#9A9A9A" width="3.4" height="3.4"/>
</g>
<text transform="matrix(1.0083 0 0 1 434.0126 16.5554)" font-family="'MyriadPro-Regular'" font-size="3px">1</text>
<text transform="matrix(1.0083 0 0 1 435.5156 16.5554)" font-family="'MyriadPro-Regular'" font-size="3px">0</text>
<g>
	<path fill="none" d="M0,0v49.4h501.2V0H0z M451,17.6h-3.4v-3.4h3.4V17.6z"/>
	<rect x="447.5" y="14.2" fill="#9A9A9A" width="3.4" height="3.4"/>
</g>
<text transform="matrix(1.0083 0 0 1 448.0517 16.5554)" font-family="'MyriadPro-Regular'" font-size="3px">1</text>
<text transform="matrix(1.0083 0 0 1 449.7333 16.5554)" font-family="'MyriadPro-Regular'" font-size="3px">1</text>
<g>
	<path fill="none" d="M0,0v49.4h501.2V0H0z M465.7,17.6h-3.4v-3.4h3.4V17.6z"/>
	<rect x="462.2" y="14.2" fill="#9A9A9A" width="3.4" height="3.4"/>
</g>
<text transform="matrix(1.0083 0 0 1 462.4511 16.5554)" font-family="'MyriadPro-Regular'" font-size="3px">1</text>
<text transform="matrix(1.0083 0 0 1 464.1328 16.5554)" font-family="'MyriadPro-Regular'" font-size="3px">2</text>
<g>
	<path fill="none" d="M0,0v49.4h501.2V0H0z M408.9,11.6h-49.7h-0.3H30.8c-0.1,0-0.2-0.1-0.2-0.2V2.8c0-0.1,0.1-0.2,0.2-0.2h328.3   c0.1,0,0.1,0,0.1,0.1l49.6,8.5c0.1,0,0.2,0.1,0.2,0.2C409.1,11.5,409,11.6,408.9,11.6z"/>
	<rect x="31" y="3" fill="#D8D8D8" width="327.7" height="8.2"/>
	<path fill="#D8D8D8" d="M358.7,11.4v-0.2H31V3h327.7V2.8c0-0.1,0-0.1,0.1-0.1c0,0,0.1,0,0.2,0l0.4,0.1c0,0-0.1-0.1-0.1-0.1H30.8   c-0.1,0-0.2,0.1-0.2,0.2v8.5c0,0.1,0.1,0.2,0.2,0.2h328.1C358.8,11.6,358.7,11.5,358.7,11.4z"/>
	<polygon fill="#D8D8D8" points="406.7,11.2 359.1,3.1 359.1,11.2  "/>
	<path fill="#D8D8D8" d="M408.9,11.2l-49.6-8.5l-0.4-0.1c0,0-0.1,0-0.2,0c0,0-0.1,0.1-0.1,0.1V3v8.2v0.2c0,0.1,0.1,0.2,0.2,0.2h0.3   h49.7c0.1,0,0.2-0.1,0.2-0.2C409.1,11.3,409,11.2,408.9,11.2z M359.1,3.1l47.6,8.1h-47.6V3.1z"/>
</g>

	<g id="tooltip" visibility="hidden" >
        <rect x="2" y="2" width="80" height="18" fill="black" opacity="0.4" rx="2" ry="2"/>
        <rect width="80" height="18" fill="white" rx="2" ry="2"/>
        <text x="4" y="6">GigabitEthernet2/1</text>
    </g>
</svg>